<svg width="440" height="59" viewBox="0 0 440 59" fill="none" xmlns="http://www.w3.org/2000/svg">
<path fill-rule="evenodd" clip-rule="evenodd" d="M203.833 11.0061C197.751 11.059 174.507 11.4235 136.238 14.3645C132.918 14.62 119.286 15.6668 94.7639 18.022C77.4814 19.6795 63.8198 21.2091 63.3352 21.259C63.2526 21.2652 57.086 21.8042 48.9587 22.5644C44.7704 22.9569 42.493 23.0628 27.3377 24.3807C25.6264 24.5271 14.8143 25.3527 0 26.7359C1.24401 26.4618 18.1672 22.7388 31.1467 20.1873C44.5828 17.5454 46.9983 17.1248 48.38 16.8849C49.5231 16.6855 61.1344 14.6636 62.6702 14.4362C75.5685 12.5389 95.1167 9.84402 106.624 8.44207C147.207 3.49476 169.929 1.98692 179.315 1.38564C181.311 1.2579 193.405 0.482146 204.287 0.242258C205.109 0.223565 206.032 -0.259338 206.754 0.1924C206.944 0.310787 215.829 7.33923 216.616 7.96232L220.144 10.76C222.857 8.61344 225.566 6.47001 228.276 4.32659C230.003 2.96203 231.557 1.25166 233.462 0.245376C233.462 0.245376 242.027 0.369989 255.719 1.13639C285.855 2.82495 316.522 6.38589 331.363 8.17103C352.101 10.6665 366.737 12.7133 382.975 15.1154C393.067 16.6076 400.976 17.8414 403.047 18.1654C403.641 18.2557 403.637 18.2651 410.391 19.6234C413.732 20.2932 413.729 20.315 417.052 21.0877C426.45 23.2716 426.446 23.2778 435.802 25.658C438.401 26.3185 438.418 26.3247 440 26.7359L412.598 25.2125C411.904 25.1751 411.904 25.1502 403.929 24.5146C401.59 24.3246 401.594 24.2872 399.266 24.0068C391.971 23.1345 377.817 21.4366 349.426 18.5205C349.277 18.505 315.301 14.8942 280.305 12.7102C256.746 11.2429 241.17 11.003 236.355 10.9594L228.46 17.346L248.372 33.1195L220.103 58.2424L191.881 33.1195C198.504 27.8824 205.127 22.6454 211.746 17.4052L203.833 11.0061ZM220.071 24.1345L208.381 33.5961L220.103 43.9051L231.779 33.5961L220.071 24.1345Z" fill="#478D7F"/>
</svg>
