<svg width="27" height="22" viewBox="0 0 27 22" fill="none" xmlns="http://www.w3.org/2000/svg">
<path fill-rule="evenodd" clip-rule="evenodd" d="M6.25522 18.2668L5.55673 19.0536L5.55762 19.0513C5.48542 19.0795 5.41218 19.1095 5.33789 19.1413C3.47176 19.9395 1.91237 21.5126 1.68241 21.7582C1.60697 21.8388 1.5316 21.9194 1.45615 22L0.0227918 21.1609L0.023096 21.1603L0.579835 21.0408L1.36763 21.4588C1.36763 21.4588 2.17616 20.6625 3.07585 19.9958C4.80553 18.7141 6.25522 18.2668 6.25522 18.2668ZM10.3931 17.5836C10.3931 17.5836 10.7907 18.2668 11.0822 18.5502C11.7189 19.1692 12.2219 19.1482 12.4067 19.1115C12.1516 19.1743 11.4842 19.2558 10.669 18.3739C10.6641 18.3686 10.4676 18.1636 10.2661 17.8578C10.2835 17.7438 10.3199 17.6469 10.3931 17.5836ZM21.0266 15.0751L20.4795 15.0382L18.7378 13.2082C18.574 13.3592 18.3906 13.6002 18.3604 13.9253C18.358 13.9512 18.3449 14.0927 18.3761 14.2503C18.4268 14.5076 18.4776 14.7649 18.5284 15.0223C18.4561 14.9825 17.6721 14.5513 17.6238 14.5257C17.306 14.3569 17.0816 14.2667 16.4296 14.2667C16.4578 14.3676 16.4996 14.484 16.5628 14.6027C16.4155 14.6777 16.468 14.8726 16.4785 14.9069C16.5591 14.9918 16.6741 15.0942 16.8366 15.2069C17.3738 15.5797 18.1727 15.4593 18.2279 15.4505L18.2314 15.4503C18.2324 15.4512 18.235 15.4537 18.2389 15.4576C17.8051 15.5937 17.2495 15.5891 16.8041 15.3933C16.4208 15.2247 16.1616 14.959 15.9866 14.7015C16.1442 14.742 16.2377 14.7027 16.2776 14.6777C16.0396 14.3249 16.0075 13.929 16.0075 13.929C16.5764 13.818 17.3059 13.929 18.0281 14.3404C18.0281 14.3404 17.9116 13.8872 18.1374 13.418C18.4259 12.8181 18.8209 12.7714 18.8209 12.7714L21.0266 15.0751ZM6.25522 18.2668L6.54691 17.1123L6.12776 17.3643C5.22355 17.6055 4.38739 17.8284 4.38662 17.8286L3.86959 17.9433C3.68061 17.9799 3.49128 18.015 3.30145 18.0471L2.14906 18.2175C2.14854 18.2176 0.761141 18.3776 0.73994 18.3796C3.52296 17.5889 7.61455 16.4739 10.0794 16.0073C10.8833 15.8659 13.3142 15.8023 14.7794 15.9996C16.7539 16.2655 19.0282 16.7156 19.0282 16.7156L21.0266 15.0751L21.5653 15.1032L21.5693 15.1074C20.7025 15.7537 19.9387 16.5291 19.0717 17.1753C19.0717 17.1753 18.6234 17.0345 17.7625 16.8539C17.5887 16.8174 17.4177 16.7834 17.25 16.7517C17.1421 17.0755 16.9888 17.4136 16.7445 17.7805C16.5201 17.9409 16.2589 18.0373 15.9502 18.0511C15.9501 18.044 15.9501 18.0369 15.95 18.0299L16.9206 16.762L16.7707 16.756C16.8106 16.7321 16.8508 16.7089 16.8911 16.6864C16.5047 16.6189 16.1382 16.5635 15.797 16.5182C14.9992 17.9063 14.1708 18.3162 13.6979 18.4768C13.1478 18.6637 12.6057 18.6566 12.0997 18.5536C12.0587 18.5453 11.8134 18.485 11.6101 18.4099C11.3278 18.3057 11.0956 18.1941 10.943 18.1184L10.3931 17.5836C10.3931 17.5836 12.3061 18.5514 13.3665 18.2127C14.6381 17.8065 15.3177 16.6575 15.5548 16.1119L15.0719 16.4369L15.0552 16.4446L15.0642 16.4308C14.4051 16.3614 13.8875 16.3316 13.5673 16.3171C13.385 16.615 13.1542 16.9152 12.8077 17.2211C12.5744 17.3093 12.324 17.3333 12.0515 17.2742L12.0522 17.2712L12.9928 16.6227L13.6291 16.213L13.1892 16.3009L13.1827 16.302C10.3308 16.209 8.63999 16.6931 8.06409 16.8472C7.82604 16.911 7.46177 17.0083 7.05339 17.1173C7.01981 17.1998 6.98421 17.2815 6.94759 17.3626C6.8652 17.5453 6.77983 17.7266 6.69384 17.9076L6.25522 18.2668ZM9.59674 19.0282L10.7176 19.266C10.3881 19.3653 10.0655 19.4869 9.73527 19.5841C9.69399 19.5962 9.69261 19.5904 9.21084 19.704L7.75223 20.0494L7.68571 20.0345L9.21454 19.4075L9.59674 19.0282ZM6.25522 18.2668C6.25522 18.2668 7.65451 18.1999 8.30193 18.347C8.94932 18.494 9.59674 19.0282 9.59674 19.0282L9.24906 19.121L9.2441 19.121L9.25425 19.1156C8.97616 18.9758 8.44767 18.7511 7.75836 18.6896C7.2938 18.6481 6.80518 18.6819 6.26058 18.8221C6.1597 19.0349 6.10396 19.1529 5.94452 19.5022C5.87057 19.6641 5.76473 19.9175 5.74954 19.9538C5.67913 20.1224 5.61008 20.2915 5.53957 20.46C5.47482 20.6147 5.4112 20.7699 5.34381 20.9235C5.30389 21.0145 5.25765 21.1027 5.21768 21.1937L5.30669 20.3209C5.59915 19.6227 5.90015 18.9294 6.25522 18.2668ZM16.5912 5.62748L16.1021 6.09797C15.7357 6.15997 15.3435 6.21547 14.9293 6.25983C14.765 6.54988 14.5631 6.82924 14.3194 7.09677C14.0663 7.19314 13.7999 7.23935 13.5186 7.22936C14.0049 6.89589 14.4339 6.50065 14.662 5.86644C14.9423 5.84113 15.1913 5.81419 15.4075 5.79259C15.5292 5.78029 15.6485 5.76682 15.7652 5.75242L15.1997 4.65888C15.1997 4.65888 15.24 4.42944 15.1968 4.14427C15.3729 4.35281 15.5589 4.60732 15.739 4.91479C15.8499 5.10405 15.9187 5.24664 15.9435 5.30005L15.7669 5.75219C16.0579 5.71619 16.3331 5.6737 16.5912 5.62748ZM0.570428 0.661373C0.570428 0.661373 1.09857 1.37082 1.58745 1.54638C1.65288 1.6265 1.718 1.70685 1.78266 1.78766C1.81074 1.82273 1.80996 1.82342 2.12409 2.23376L-9.35431e-07 0.599833L0.00556849 0.596815L0.570428 0.661373ZM14.662 5.86644L14.0449 6.33066L14.0206 6.33577C12.2804 6.43934 10.2406 6.32044 8.12668 5.69111C7.62639 5.54226 6.59118 5.26498 3.90885 4.55763C3.79232 4.52674 3.67522 4.49818 3.55925 4.46543L3.07922 4.31472L2.59951 4.13986C2.59715 4.13893 1.71653 3.76992 1.71334 3.76853C1.68716 3.75669 0.817793 3.33683 0.739963 3.29921C3.6047 4.02491 5.09438 4.42317 7.12326 4.98794L7.09581 4.9689L5.71737 4.19303L5.69738 4.18212C5.35682 3.93527 4.71027 3.44829 3.81057 2.61902C3.80985 2.61832 3.50389 2.33524 3.09494 1.92537C2.96175 1.79184 2.33114 1.16205 1.69949 0.420092L0.925434 0.736381L0.930067 0.741955L0.570428 0.661373L1.80559 -7.89248e-08C2.51268 0.74242 3.70293 1.91956 4.81927 2.96712C4.98222 3.00428 6.29194 3.29363 7.44911 3.29363C8.71272 3.29363 10.0321 2.37008 10.0321 2.37008L10.7271 2.22075C10.6342 2.31504 10.2604 2.69473 10.2527 2.70216C10.148 2.8048 10.0762 2.85845 10.0598 2.87075C9.95165 2.95157 9.51147 3.27784 8.74071 3.49497C8.39076 3.59367 8.03442 3.63454 7.97224 3.64173C7.37081 3.71094 6.79048 3.67819 6.26559 3.59692L6.26749 3.59831L5.70635 3.5096C5.68915 3.77155 6.5145 4.25643 7.11682 4.97772L7.13575 4.99142L7.12174 4.98353L7.12604 4.98864L7.13575 4.99142C7.47681 5.0864 7.8332 5.18603 8.21397 5.29285C11.0401 6.08496 13.2491 5.99417 14.662 5.86644ZM15.813 7.63135C15.813 7.63135 16.2001 7.75512 16.8759 7.51964C17.8744 7.17154 17.722 5.90801 17.722 5.90801L17.7267 5.91544C17.7822 6.18413 17.8159 6.46837 17.7698 6.7749C17.763 6.82088 17.7468 6.93815 17.6799 7.10327C17.631 7.22356 17.5954 7.27627 17.5861 7.29021C17.4456 7.49921 17.2972 7.6051 17.234 7.64899C17.0689 7.76348 16.826 7.88679 16.4308 7.94299C16.3659 7.95205 16.1091 7.97921 15.8494 7.95994C15.8098 7.95692 15.8099 7.95669 15.485 7.92836L15.4851 7.91303L15.813 7.63135ZM20.7231 6.31254L21.3933 6.25495L18.7147 9.15752L18.7107 9.15334L18.7341 8.54956L20.7231 6.31254ZM10.0321 2.37008L9.20211 2.44671L9.20441 2.44555C9.18522 2.43742 9.16605 2.42929 9.14691 2.42117C8.82937 2.28578 8.50984 2.15457 8.19686 2.00897C7.87305 1.85849 7.55628 1.69361 7.2371 1.53361C7.00616 1.41796 6.77749 1.29766 6.54653 1.18202L6.55493 1.18364L10.0321 2.37008ZM20.7231 6.31254L20.2144 6.35667L18.9721 5.37436C18.7135 5.46632 18.2424 5.62168 17.6044 5.78284C17.5749 5.80397 17.5543 5.80699 17.4958 5.83114C16.7294 6.1486 16.3225 6.83714 16.1896 7.32249L15.813 7.63135C15.8832 7.13485 15.9898 6.80509 16.164 6.57821C16.7108 5.86644 16.5912 5.62748 16.5912 5.62748C18.1329 5.35067 19.0617 4.93615 19.0617 4.93615L20.7231 6.31254ZM10.5349 4.09922C10.5349 4.09922 11.4206 3.13293 12.9065 3.19587C14.2696 3.25369 15.0301 4.54857 15.0301 4.54857C14.8547 4.47588 14.688 4.42479 14.5284 4.39112C14.2189 4.06392 13.8247 3.76087 13.3542 3.62548C12.6144 3.41276 11.9416 3.65706 11.6602 3.76063C11.6125 3.77828 11.2988 3.88975 10.9126 4.12499C10.9569 4.15518 11.0046 4.18607 11.0552 4.21719C10.9442 4.28732 10.8673 4.34537 10.8289 4.37579C11.1163 4.60036 11.5997 4.87113 12.2129 4.81168C13.2308 4.71299 13.3991 3.81335 13.3991 3.81335L13.3995 3.81405C13.4093 3.83054 13.432 3.97451 13.3533 4.23159C13.3473 4.25133 13.2787 4.42735 13.1893 4.54485C13.1231 4.63194 13.0627 4.69046 13.0427 4.70973C13.0425 4.70997 12.9986 4.74736 12.9375 4.78939C12.4927 5.09499 12.016 5.06666 11.8966 5.05923C11.3131 5.0237 10.8238 4.74944 10.6215 4.62915C10.5116 4.5639 10.3903 4.48471 10.2611 4.39066C10.2328 4.37022 10.233 4.36883 9.92666 4.13034L10.5349 4.09922C10.5349 4.09922 10.5491 4.11663 10.5764 4.14613L10.5349 4.09922ZM21.1892 12.8826L22.4367 14.0972L23.1368 13.5611L22.4592 14.3635C21.7895 13.9252 21.1593 13.436 20.579 12.8826L21.1892 12.8826ZM21.8185 9.30916L21.4609 9.4406L21.3413 9.34446L20.567 8.69981L20.567 8.69958L21.1839 8.67914L22.4065 7.52963L22.4313 7.25119L22.4596 7.23215L23.1368 8.00964L22.4681 7.66641C22.1831 8.05887 21.8957 8.39373 21.6065 8.67682L21.5992 8.67914L21.2307 8.67914L21.8185 9.30916ZM21.1892 12.8826L22.5652 11.6484L23.9994 12.8427L26.47 10.7854L27 10.7854L23.9994 13.284L22.5652 12.0897L21.6032 12.8907L21.1892 12.8826ZM21.9413 12.208L21.4864 12.1054L21.4867 12.1053C21.4228 12.077 21.3479 12.0413 21.2943 12.0081C21.0643 11.8656 20.5846 11.5304 20.5237 11.4878C20.4442 11.4321 20.3653 11.3751 20.2869 11.3178C20.2067 11.2591 20.1259 11.2008 20.0473 11.1398C19.8968 11.0233 19.7506 10.9019 19.6001 10.7854L20.1725 10.7854L21.9413 12.208ZM20.1725 10.7854L21.8185 9.30916L22.5778 9.8744L24.0193 8.72721L26.47 10.7854L25.9402 10.7854L23.9994 9.16936L22.5652 10.3637L21.7857 9.71463C21.7281 9.79033 21.6575 9.85605 21.5934 9.92688C21.5494 9.97541 21.2508 10.3052 21.0311 10.5214C20.984 10.5678 20.9363 10.614 20.8876 10.6588C20.8408 10.702 20.7914 10.7422 20.7446 10.7854L20.1725 10.7854ZM24.2584 10.1389L24.2596 10.1389L24.2715 10.2882C24.2718 10.301 24.2746 10.3147 24.2687 10.3261C24.2453 10.3725 24.1194 10.5434 24.1056 10.5618C24.0949 10.5764 24.0272 10.6684 23.9594 10.7366C23.9425 10.7536 23.9238 10.7685 23.9069 10.7854C23.9385 10.8177 23.9734 10.8468 24.0048 10.8791C24.0204 10.895 24.034 10.9127 24.0478 10.9301C24.0576 10.9423 24.0974 10.9917 24.1613 11.0898C24.1819 11.1212 24.2039 11.1519 24.2205 11.1856C24.2336 11.2127 24.2285 11.2141 24.2418 11.3116L24.2596 11.4318C24.214 11.4266 24.1679 11.4282 24.1222 11.423C24.0869 11.419 24.0518 11.4126 24.0174 11.4042C23.9905 11.3977 23.9633 11.3905 23.9385 11.3782C23.8234 11.3213 23.5669 11.1555 23.5354 11.135C23.4937 11.108 23.4527 11.0798 23.4118 11.0515C23.3699 11.0224 23.328 10.9936 23.2873 10.963C23.2106 10.9049 23.1364 10.8435 23.0594 10.7854L23.5824 10.7854L24.2584 10.1389ZM15.2599 15.6493C15.1861 15.7054 15.1387 15.7819 15.1597 15.8854C15.1597 15.8854 14.1718 15.0253 14.0891 14.9159C14.2139 14.7464 14.2503 14.6404 14.2165 14.5058C14.251 14.5169 14.2854 14.529 14.3194 14.5419C14.6318 14.8848 14.8753 15.2471 15.0592 15.6264C15.1374 15.635 15.205 15.6428 15.2599 15.6493ZM18.6971 8.20169L18.7399 8.51821C18.7399 8.51821 18.0613 7.97596 18.3381 6.81415L18.3381 6.81392C18.4498 7.05636 18.3545 7.5078 18.5626 7.95994C18.5736 7.98363 18.6112 8.08163 18.6969 8.20192L18.6971 8.20169ZM6.58545 2.86053L6.58559 2.86193L5.99337 2.33129C6.10078 2.25559 6.17629 2.16293 6.20877 2.04775C6.39495 2.33873 6.50748 2.60532 6.58517 2.86053L6.58545 2.86053ZM17.572 4.95125L17.3346 5.16954L16.4884 4.18212C16.6296 4.06299 16.7016 3.95175 16.7483 3.86397C17.0245 4.28012 17.1838 4.65911 17.2928 5.02231C17.3897 4.99862 17.4828 4.97493 17.572 4.95125Z" fill="#30796A"/>
</svg>
