<svg width="755" height="532" viewBox="0 0 755 532" fill="none" xmlns="http://www.w3.org/2000/svg">
<path fill-rule="evenodd" clip-rule="evenodd" d="M298.861 458.468L200.145 288.756L195.539 291.416L191.556 284.517C178.6 293.049 167.9 306.174 160.687 330.548L157.213 342.29L146.056 337.242C116.912 324.056 103.168 304.604 96.5436 288.099L92.457 277.918L102.747 274.115C125.04 265.876 146.468 255.088 167.275 242.462L161.815 233.005L211.296 204.438L214.599 210.159C215.884 209.191 217.167 208.218 218.448 207.24L231.393 197.357L234.286 209.112L245.898 198.669L316.685 229.235L259.722 299.202L350.99 458.468H298.861ZM399.925 458.468L490.433 300.528L432.392 229.235L503.176 198.669L516.297 210.467L519.521 197.357L532.468 207.24C533.749 208.218 535.029 209.191 536.314 210.159L539.618 204.438L589.1 233.005L583.64 242.462C604.448 255.088 625.875 265.876 648.168 274.115L658.457 277.918L654.371 288.099C647.746 304.604 634.003 324.056 604.857 337.242L593.702 342.29L590.229 330.548C583.013 306.174 572.315 293.049 559.359 284.517L555.375 291.416L550.769 288.756L452.053 458.468H399.925Z" fill="#0E5B4B"/>
<path fill-rule="evenodd" clip-rule="evenodd" d="M477.983 254.231L551.531 317.285L614.477 457.704L375.462 458.469L136.441 457.704L199.383 317.285L274.165 253.175C257.391 243.351 244.057 231.149 235.78 217.403C225.46 200.28 223.112 185.586 225.067 173.274C227.054 160.694 233.574 149.968 243.566 141.103C255.032 130.93 271.675 123.228 289.257 117.633C293.559 116.267 297.873 115.041 302.219 113.942C306.762 86.0821 311.775 55.9636 314.254 42.9072L317.53 34.1993C319.004 31.5402 321.221 28.3318 324.158 24.976C334.292 13.4397 353.698 0 375.047 0C397.052 0 416.577 13.5151 426.733 24.9607C429.715 28.3231 431.942 31.5282 433.428 34.172L436.737 42.9389C439.172 55.896 444.239 86.437 448.814 114.553C449.754 114.763 450.682 114.972 451.577 115.179C466.888 118.724 485.758 125.484 500.075 135.794C511.967 144.36 520.823 155.365 524.536 168.355C528.5 182.258 527.157 199.09 514.479 218.707C505.098 233.224 492.605 245.028 477.983 254.231Z" fill="#0E5B4B"/>
<path fill-rule="evenodd" clip-rule="evenodd" d="M459.374 252.331L542.773 323.831L598.019 447.085L375.462 447.798L152.895 447.085L208.14 323.831L293.111 250.992C271.653 241.231 254.497 227.807 244.909 211.897C236.26 197.526 233.966 185.276 235.604 174.942C237.21 164.803 242.583 156.233 250.642 149.087C261.125 139.789 276.425 132.916 292.5 127.803C298.812 125.792 305.2 124.097 311.599 122.685C316.404 93.1328 322.05 59.0142 324.737 44.8996C325.272 42.0789 327.663 37.1658 332.184 32.0158C340.735 22.2704 357.017 10.6719 375.047 10.6719C393.688 10.6719 410.145 22.3403 418.75 32.0409C423.337 37.2138 425.728 42.1378 426.252 44.9149C428.895 58.9443 434.606 93.6602 439.455 123.49C442.972 124.189 446.215 124.892 449.163 125.576C463.262 128.838 480.658 134.967 493.839 144.454C503.689 151.548 511.202 160.528 514.271 171.284C517.569 182.803 516.029 196.663 505.523 212.915C494.33 230.225 478.266 243.243 459.374 252.331ZM442.644 249.708C465.577 241.417 485.288 227.831 498.054 208.087C527.036 163.254 478.288 141.444 447.165 134.239C442.666 133.2 437.468 132.111 431.669 131.069C426.656 100.104 420.334 61.5281 417.505 46.5606C416.315 40.2366 397.685 19.5643 375.047 19.5643C353.228 19.5643 334.696 40.1023 333.473 46.5606C330.612 61.6056 324.376 99.4469 319.396 130.153C311.294 131.719 303.191 133.734 295.186 136.277C259.924 147.497 228.277 167.048 252.531 207.309C263.2 225.027 284.266 239.102 310.005 248.218L215.445 329.286L166.606 438.236L375.462 438.906L584.314 438.236L535.478 329.286L442.644 249.708Z" fill="#478D7F"/>
<path fill-rule="evenodd" clip-rule="evenodd" d="M589.571 291.831C581.725 271.488 569.68 261.619 555.482 255.135L550.943 262.56L517.51 244.119L531.135 201.031C535.307 204.246 539.506 207.394 543.733 210.465L548.274 203.037L577.484 219.148L571.394 229.109C594.042 243.144 617.69 254.686 642.779 262.61C635.621 278.301 621.82 297.081 595.084 311.329C594.331 307.583 593.487 304.083 592.554 300.808C618.738 279.464 624.374 262.23 624.374 262.23L618.463 259.842C607.459 280.175 598.155 287.106 589.571 291.831ZM151.979 336.546C150.437 340.061 148.946 343.796 147.51 347.77C122.886 337.705 112.181 320.92 107.667 306.18C134.504 294.027 160.509 278.444 185.939 260.494L181.507 251.389L213.957 230.257L217.262 237.047C222.089 233.238 226.899 229.356 231.693 225.411L237.963 266.88L200.821 291.068L197.518 284.282C182.006 293.173 168.076 305.138 156.566 326.998C148.737 323.608 140.579 318.048 133.036 299.366L126.622 302.759C126.622 302.759 129.309 319.235 151.979 336.546ZM296.12 155.363C296.12 155.363 320.242 138.821 387.232 133.367C424.924 130.297 524.555 134.888 497.459 187.939C507.598 161.411 470.923 133.985 437.884 146.266C396.694 161.574 375.811 162.17 337.044 151.908C313.494 145.674 296.12 155.363 296.12 155.363ZM411.179 406.359C411.179 406.359 406.767 391.502 414.254 371.002C417.476 362.185 429.346 326.334 429.614 325.61C431.062 321.694 431.104 321.705 432.858 317.882C433.135 317.271 433.395 316.655 433.695 316.053C433.712 316.018 438.325 307.241 438.34 307.218C438.618 306.724 443.727 298.28 444.197 297.503C443.222 307.963 443.237 307.961 443.201 308.202C443.083 308.96 441.729 317.635 441.725 317.673C441.611 318.311 441.45 318.949 441.312 319.586C440.451 323.59 440.492 323.594 439.308 327.563C439.208 327.9 437.53 332.923 435.781 338.133C442.391 330.02 447.961 324.155 449.08 322.976C457.929 313.66 464.591 307.613 466.02 306.299C466.169 306.159 467.304 305.135 468.552 304.031L467.533 299.816C464.235 302.171 460.971 304.59 457.673 306.945C457.303 307.208 457.301 307.203 453.021 310.173L470.712 285.767L480.427 306.187C477.586 308.778 477.548 308.729 474.809 311.44C472.28 313.949 466.358 319.905 461.046 325.625C460.357 326.364 457.463 329.478 452.593 335.007C451.378 336.384 450.229 337.716 449.141 338.995C448.033 341.934 447.139 344.682 446.428 347.25C446.948 346.582 447.49 345.918 448.061 345.262C449.966 344.343 451.942 343.803 453.997 343.687C453.674 345.977 452.799 347.956 451.494 349.694C449.155 351.36 447.01 352.545 444.973 353.447C443.017 363.751 444.181 370.347 444.987 373.766C445.149 374.453 445.324 375.095 445.507 375.693C446.666 373.416 447.837 371.144 449.094 368.913C450.92 365.672 452.924 362.522 454.868 359.342C456.277 357.038 457.736 354.762 459.145 352.458C458.488 355.168 457.997 357.891 457.343 360.603C454.215 373.529 454.14 373.525 449.978 386.308C448.815 389.893 447.548 393.457 446.382 397.04C445.915 396.549 441.466 391.882 440.509 390.885C439.31 389.638 438.813 388.849 438.284 387.983C437.862 387.293 434.742 382.198 433.695 374.054C433.005 368.682 433.231 363.336 433.946 358.34L433.942 358.347C433.463 358.916 433.396 358.9 431.476 360.929C431.341 361.071 428.417 364.019 427.834 364.767C427.268 365.495 426.632 366.328 425.961 367.251C424.258 372.187 423.906 373.049 423.146 375.205C420.372 383.099 411.179 406.359 411.179 406.359ZM290.169 353.465C283.721 335.75 270.058 322.28 269.82 322.018C269.76 321.952 269.703 321.883 269.645 321.815C269.442 321.579 269.426 321.598 266.887 319.081L276.978 303.186C279.672 304.612 279.85 304.36 282.162 306.329C283.056 307.091 285.062 308.797 287.897 312.34C292.016 317.49 293.61 322.489 294.31 324.923C293.03 323.032 290.023 318.628 284.096 315.116C284.093 315.114 282.445 314.16 279.984 313.226L279.773 313.146L278.613 315.742C278.838 315.984 279.086 316.255 279.363 316.559C285.358 323.139 297.367 338.215 301.603 356.183C302.876 356.458 304.157 356.712 305.433 356.975C304.253 350.183 303.297 344.667 303.296 344.652L302.619 338.933C302.284 334.846 302.258 334.85 302.211 330.698C302.177 327.736 302.043 324.789 302.107 321.809C302.243 315.437 302.393 315.419 302.679 309.025C304.148 312.721 305.892 316.256 307.359 319.95C308.39 322.543 309.236 325.239 310.172 327.882C311.959 332.926 311.923 332.946 313.151 338.256C313.359 339.153 313.601 340.034 313.773 340.944C313.785 341.019 318.175 366.347 320.186 377.859C323.635 397.599 317.19 412.291 317.19 412.291C317.19 412.291 310.266 384.759 309.389 379.733C309.077 377.95 308.612 375.275 308.073 372.18C307.565 372.13 307.064 372.02 306.585 371.892C305.389 371.57 304.225 371.165 303.091 370.702C302.602 383.994 297.101 395.072 292.229 401.659C292.22 401.665 292.14 401.788 291.715 402.301C291.21 402.913 291.207 402.91 285.361 409.908C284.769 407.4 284.109 404.917 283.513 402.407C283.128 400.783 282.74 399.156 282.42 397.505C282.209 396.422 282.256 396.408 281.5 389.39C281.329 387.822 281.309 387.83 279.266 369.838C286.616 385.395 286.616 385.396 287.264 386.74C287.781 387.807 288.304 388.865 288.824 389.927C288.94 389.689 289.056 389.444 289.176 389.192C293.414 380.118 293.821 372.031 293.194 366.041L292.995 365.946C291.223 365.098 289.467 364.224 287.693 363.379C286.141 362.64 284.59 361.908 283.02 361.197C281.592 360.55 279.278 359.685 278.949 359.562C277.402 358.985 275.843 358.431 274.297 357.851C272.892 357.324 271.485 356.805 270.099 356.243C269.486 355.994 268.914 355.667 268.301 355.418C270.524 354.444 272.651 353.139 274.874 352.165C276.357 351.515 277.867 350.945 279.389 350.494L279.4 350.033C279.681 350.118 279.969 350.186 280.257 350.252C281.754 349.872 283.262 349.684 284.764 349.39C284.783 349.386 284.801 349.394 284.819 349.391C284.446 350.022 284.095 350.664 283.741 351.305L284.801 351.659C286.078 352.085 287.345 352.537 288.625 352.966C288.774 353.016 289.411 353.229 290.169 353.465Z" fill="#478D7F"/>
<path fill-rule="evenodd" clip-rule="evenodd" d="M383.541 283.309C410.624 278.958 427.474 254.148 427.474 254.148L435.882 258.6C434.397 273.441 411.836 290.633 411.836 290.633L390.738 432.648C387.56 435.355 366.068 436.725 360.051 431.613L339.084 290.633C339.084 290.633 316.512 273.441 315.027 258.6L323.435 254.148C323.435 254.148 340.296 278.958 367.368 283.309L375.46 358.68L383.541 283.309ZM345.058 184.904C346.379 183.384 351.501 181.211 359.112 180.431V180.621C355.519 183.449 355.334 184.586 354.416 187.227L347.58 187.306L345.058 184.904ZM387.898 181.627C394.188 181.952 400.435 185.322 410.831 185.322L410.22 193.358L402.411 197.73L400.435 213.134L394.188 216.881L396.372 217.61L391.273 239.155C391.273 239.155 374.619 242.59 367.958 240.173C361.296 237.755 360.357 228.411 365.883 225.601C371.398 222.791 380.134 225.08 383.88 226.226C387.636 227.37 388.881 223.416 388.881 223.416C388.881 223.416 388.357 222.062 387.003 221.126C385.66 220.189 385.136 218.002 385.136 218.002C385.136 218.002 382.318 217.483 379.926 216.649C377.535 215.817 374.095 216.025 370.349 216.649C366.604 217.274 364.944 212.383 364.944 212.383L368.788 210.717C368.788 210.717 372.708 211.653 375.318 211.653C377.917 211.653 382.744 210.717 382.744 210.717L393.042 214.464L390.028 207.491L389.919 211.03L381.39 204.576L375.318 206.503L368.788 204.681L375.875 199.58L376.497 203.328L377.742 204.264L379.719 203.328L379.206 198.019C379.206 198.019 381.182 196.874 384.098 196.145C387.003 195.417 388.674 192.815 388.674 192.815L392.736 200.101L397.104 203.847L397.202 198.644L392.736 187.923L390.235 186.882L388.051 182.822L387.898 181.627ZM371.889 177.29C373.778 176.124 376.661 175.232 379.992 177.29C379.992 177.29 380.811 181.087 381.193 184.639C381.335 185.982 383.585 182.362 383.585 182.362C383.585 182.362 389.678 187.224 388.575 189.659C388.248 190.399 387.451 191.868 386.511 191.906C383.945 192.01 387.178 187.258 381.532 186.688C379.49 186.483 379.643 188.93 375.438 188.841C372.348 188.775 371.824 186.039 371.015 183.881L371.889 177.29ZM518.08 257.563L515.994 256.354L525.986 215.721C530.497 219.162 535.029 222.539 539.582 225.847L543.525 219.014L574.517 236.91L569.231 246.072C593.398 261.442 618.362 274.476 644.473 284.123C638.597 298.747 626.279 315.836 600.463 327.52C599.35 323.786 598.17 320.288 596.925 317.008C621.398 298.466 625.569 282.306 625.569 282.306C593.584 268.487 562.897 246.775 562.897 246.775L567.014 239.651L544.147 226.449L540.314 233.081L528.367 224.271L518.08 257.563ZM232.829 257.563L222.542 224.271L210.595 233.081L206.773 226.449L183.901 239.651L188.014 246.775C165.066 263.61 139.193 278.302 109.032 289.847C108.055 287.909 107.197 285.996 106.445 284.123C132.55 274.476 157.511 261.442 181.681 246.072L176.391 236.91L207.385 219.014L211.338 225.847C215.892 222.539 220.413 219.162 224.923 215.721L234.926 256.354L232.829 257.563Z" fill="white"/>
<path fill-rule="evenodd" clip-rule="evenodd" d="M428.973 190.604C428.973 190.559 428.984 190.52 428.995 190.49L428.973 190.604ZM428.973 190.604C428.607 193.415 435.998 224.632 417.538 240.352L414.429 229.332C411.933 241.036 403.66 247.593 397.12 250.401L409.631 209.07L412.363 224.395L419.818 213.51L422.744 220.118L428.973 190.604ZM321.956 190.754L321.923 190.49C321.934 190.549 321.945 190.638 321.956 190.754ZM321.956 190.754C323.645 203.29 325.011 216.191 330.573 224.424L336.479 217.801C339.942 231.114 345.741 241.951 353.798 250.401C343.761 244.864 339.093 239.026 335.058 232.182L333.38 240.352C315.2 224.873 322.095 194.369 321.956 190.754ZM305.356 353.719L295.416 344.278C287.326 326.622 272.298 312.507 272.04 312.235C271.975 312.166 271.911 312.095 271.846 312.025C271.62 311.78 271.599 311.797 268.812 309.161L277.29 295.139L277.784 294.656V294.658L278.978 300.159L274.998 307.594C274.998 307.594 282.572 315.224 288.919 323.715C301.107 340.038 305.356 353.719 305.356 353.719ZM319.126 356.573L310.832 348.782L311.176 348.877C309.391 342.21 307.938 336.795 307.928 336.78L306.744 331.194C306.045 327.21 306.013 327.213 305.604 323.189C305.303 320.319 304.915 317.456 304.711 314.577C304.291 308.419 304.442 308.414 304.173 302.249C308.691 318.027 314.361 338.054 319.126 356.573ZM319.148 356.666L319.126 356.573L319.245 356.686L319.148 356.666ZM305.356 353.719C305.356 353.719 306.325 361.7 304.593 373.035C303.646 379.231 296.955 389.653 296.955 389.653L297.234 379.405L297.267 379.463C297.363 379.242 297.46 379.014 297.557 378.778C301.043 370.329 300.741 362.534 299.59 356.688L299.375 356.578C297.503 355.619 295.653 354.635 293.781 353.678C292.146 352.841 290.511 352.009 288.854 351.197C287.348 350.457 284.938 349.44 284.583 349.294C282.97 348.612 281.345 347.954 279.732 347.271C278.258 346.65 276.784 346.037 275.332 345.384C274.697 345.098 274.094 344.742 273.471 344.455L285.82 344.768C292.458 347.528 299.052 350.368 305.356 353.719ZM305.356 353.719L319.148 356.666C322.311 368.939 325.075 380.546 326.84 389.809C327.334 392.617 327.732 397.529 327.948 403.304C327.539 402.123 318.492 376.038 317.19 371.215C316.717 369.466 316.007 366.84 315.189 363.802C314.673 363.713 314.156 363.569 313.661 363.405C312.424 362.999 311.209 362.516 310.015 361.978L305.356 353.719ZM296.955 389.653L295.556 398.482L295.524 398.53C294.695 396.055 293.813 393.6 292.985 391.125C292.447 389.521 291.92 387.917 291.447 386.292C291.135 385.228 291.178 385.218 289.801 378.365C289.489 376.835 289.467 376.841 285.82 359.265L285.853 359.329L296.955 389.653ZM456.524 388.03L457.438 398.764V398.766C456.922 398.252 452.006 393.385 450.951 392.345C449.617 391.043 449.047 390.24 448.434 389.359C447.95 388.658 444.335 383.481 442.56 375.516C441.388 370.261 441.151 365.105 441.431 360.328V360.333C441.345 360.432 441.28 360.51 441.205 360.587L445.691 348.539C443.206 348.378 438.591 356.166 431.727 361.851L431.598 362.029L431.652 361.914L431.598 361.958L431.706 361.813L441.538 340.879C447.509 333.563 452.619 328.341 453.641 327.29C461.784 318.971 467.991 313.641 469.325 312.483C469.465 312.36 470.53 311.458 471.692 310.486L470.294 306.326L470.197 306.385L470.229 306.349L472.779 300.07L477.62 312.248C470.724 318.763 460.3 329.476 450.908 339.653C450.908 339.653 446.874 351.728 446.874 366.65C446.874 378.575 456.524 388.03 456.524 388.03ZM472.779 300.07C472.779 300.07 465.345 305.561 464.151 310.352C463.086 311.055 462.01 311.758 460.934 312.45C460.579 312.677 460.579 312.671 456.513 315.209L472.273 292.979L472.284 292.998L472.779 300.07ZM456.524 388.03L454.684 378.004C455.652 375.903 456.631 373.804 457.707 371.753C459.267 368.761 461.02 365.87 462.709 362.945C463.925 360.825 465.205 358.738 466.432 356.618C466.087 358.667 465.861 360.732 465.56 362.788L456.524 388.03ZM422.981 403.889L422.605 405.011C422.605 405.011 416.839 390.283 422.605 371.03C425.09 362.749 433.954 328.984 434.158 328.304C435.288 324.628 435.331 324.642 436.762 321.079C436.998 320.512 437.203 319.935 437.45 319.376C437.472 319.344 441.366 311.213 441.377 311.191C441.614 310.735 446.046 302.963 446.455 302.249V302.79C438.687 333.279 435.686 347.609 428.737 372.205C425.423 383.942 423.734 394.551 422.981 403.889ZM452.038 357.834L450.467 356.56L456.9 351.248C457.417 351.981 458.019 352.555 458.729 352.934C458.632 353.071 458.535 353.207 458.439 353.34C456.223 354.77 454.146 355.746 452.167 356.46C452.113 356.925 452.07 357.383 452.038 357.834Z" fill="#30796A"/>
<path fill-rule="evenodd" clip-rule="evenodd" d="M419.855 129.606C395.779 125.903 364.022 123.54 331.33 127.754L332.728 120.697C332.728 120.697 348.865 110.715 375.458 110.715C402.051 110.715 418.101 121.271 418.101 121.271L419.855 129.606ZM219.202 300.294L213.898 291.182L235.64 278.633L238.544 283.711L219.202 300.294ZM512.371 283.711L515.276 278.633L537.017 291.182L531.713 300.294L512.371 283.711Z" fill="#FFCB00"/>
<path fill-rule="evenodd" clip-rule="evenodd" d="M417.381 46.0393C417.381 46.0393 414.665 23.4309 375.462 12.268C373.037 11.5779 370.419 11.2834 367.695 11.3C370.102 10.8931 372.558 10.6719 375.051 10.6719C393.692 10.6719 410.148 22.3401 418.745 32.0412C423.335 37.2136 425.724 42.1382 426.249 44.9147C428.893 58.945 434.612 93.6609 439.452 123.491C442.97 124.189 446.218 124.893 449.168 125.576C463.261 128.838 480.664 134.967 493.841 144.454C503.692 151.549 511.202 160.528 514.277 171.285C517.566 182.804 516.026 196.663 505.519 212.915C494.335 230.226 478.265 243.243 459.374 252.332L542.775 323.831L585.236 418.565L575.067 417.613L535.474 329.286L442.648 249.708C465.572 241.417 485.29 227.832 498.056 208.088C527.033 163.253 478.291 141.445 447.165 134.239C442.674 133.199 437.464 132.111 431.672 131.069C426.66 100.104 420.327 61.5289 417.512 46.5602C417.48 46.3963 417.433 46.2225 417.381 46.0393Z" fill="white"/>
</svg>
