<svg width="17" height="16" viewBox="0 0 17 16" fill="none" xmlns="http://www.w3.org/2000/svg">
<path d="M9.37381 0.000984283C9.99405 -0.00125582 10.6143 0.00461127 11.2344 0.0185837L11.3993 0.0241835C11.5896 0.0305833 11.7775 0.038583 12.0044 0.0481827C12.9088 0.0881813 13.5258 0.222577 14.0673 0.42017C14.6282 0.623363 15.1008 0.898554 15.5734 1.34334C16.0055 1.74301 16.3399 2.22647 16.5534 2.76009C16.7633 3.26967 16.9061 3.85125 16.9486 4.70242C16.9588 4.91522 16.9673 5.09281 16.9741 5.27201L16.9792 5.4272C16.9943 6.01053 17.0008 6.59404 16.9988 7.17754L16.9996 7.77432V8.82228C17.0017 9.40605 16.9952 9.98982 16.9801 10.5734L16.975 10.7286C16.9682 10.9078 16.9597 11.0846 16.9495 11.2982C16.907 12.1494 16.7625 12.7302 16.5534 13.2397C16.3406 13.7739 16.0061 14.2578 15.5734 14.6573C15.1484 15.0639 14.6345 15.3787 14.0673 15.5797C13.5258 15.7772 12.9088 15.9116 12.0044 15.9516C11.7775 15.9612 11.5896 15.9692 11.3993 15.9756L11.2344 15.9804C10.6143 15.9947 9.99405 16.0008 9.37381 15.9988L8.73974 15.9996H7.62715C7.0069 16.0016 6.38666 15.9955 5.76659 15.9812L5.6017 15.9764C5.39993 15.9696 5.1982 15.9616 4.99653 15.9524C4.09218 15.9124 3.47511 15.7764 2.93284 15.5797C2.36565 15.3791 1.8519 15.0643 1.42757 14.6573C0.994978 14.2575 0.660247 13.7738 0.446718 13.2397C0.236778 12.7302 0.0939856 12.1494 0.0514878 11.2982C0.0420217 11.1084 0.0335221 10.9185 0.0259891 10.7286L0.0217394 10.5734C0.00606927 9.98983 -0.00101446 9.40606 0.000490425 8.82228V7.17754C-0.00188177 6.59404 0.0043519 6.01054 0.0191895 5.4272L0.0251392 5.27201C0.0319389 5.09281 0.0404384 4.91522 0.0506379 4.70242C0.0931357 3.85045 0.235928 3.27047 0.445867 2.76009C0.659523 2.2262 0.994909 1.74288 1.42842 1.34414C1.85246 0.936754 2.36589 0.621421 2.93284 0.42017C3.47511 0.222577 4.09133 0.0881813 4.99653 0.0481827L5.6017 0.0241835L5.76659 0.0201838C6.38637 0.00544252 7.00633 -0.00122464 7.6263 0.000184368L9.37381 0.000984283ZM8.50005 4.00085C7.93696 3.99335 7.37791 4.09126 6.85537 4.28889C6.33283 4.48652 5.85724 4.77992 5.45623 5.15205C5.05522 5.52418 4.73679 5.96761 4.51944 6.45657C4.3021 6.94554 4.19017 7.47028 4.19017 8.00031C4.19017 8.53034 4.3021 9.05509 4.51944 9.54405C4.73679 10.033 5.05522 10.4764 5.45623 10.8486C5.85724 11.2207 6.33283 11.5141 6.85537 11.7117C7.37791 11.9094 7.93696 12.0073 8.50005 11.9998C9.62717 11.9998 10.7081 11.5784 11.5051 10.8282C12.3021 10.0781 12.7498 9.06074 12.7498 7.99991C12.7498 6.93908 12.3021 5.9217 11.5051 5.17158C10.7081 4.42146 9.62717 4.00085 8.50005 4.00085ZM8.50005 5.60079C8.83877 5.59492 9.17533 5.65263 9.49008 5.77055C9.80483 5.88848 10.0915 6.06425 10.3332 6.28761C10.575 6.51096 10.767 6.77742 10.8982 7.07142C11.0293 7.36541 11.0968 7.68106 11.0969 7.9999C11.097 8.31875 11.0295 8.63442 10.8985 8.92846C10.7675 9.22249 10.5755 9.48901 10.3338 9.71244C10.0921 9.93587 9.80558 10.1117 9.49087 10.2298C9.17616 10.3478 8.83962 10.4056 8.50091 10.3998C7.82464 10.3998 7.17607 10.147 6.69787 9.69691C6.21968 9.24684 5.95104 8.63641 5.95104 7.99991C5.95104 7.36341 6.21968 6.75299 6.69787 6.30291C7.17607 5.85284 7.82464 5.59999 8.50091 5.59999L8.50005 5.60079ZM12.9623 2.80089C12.6881 2.81122 12.4288 2.92101 12.2387 3.10726C12.0486 3.29351 11.9424 3.54177 11.9424 3.80006C11.9424 4.05834 12.0486 4.3066 12.2387 4.49285C12.4288 4.6791 12.6881 4.78889 12.9623 4.79922C13.2441 4.79922 13.5143 4.69387 13.7136 4.50634C13.9128 4.31881 14.0248 4.06446 14.0248 3.79925C14.0248 3.53405 13.9128 3.2797 13.7136 3.09217C13.5143 2.90464 13.2441 2.79929 12.9623 2.79929V2.80089Z" fill="white"/>
</svg>
