<svg width="228" height="262" viewBox="0 0 228 262" fill="none" xmlns="http://www.w3.org/2000/svg">
<path fill-rule="evenodd" clip-rule="evenodd" d="M140.74 72.6861L144.865 57.5152H140.442L130.756 41.1739L222.301 5.41797L183.786 148.025C189.019 148.752 204.259 151.637 206.705 160.795C209.67 171.884 192.378 180.753 186.194 182.405C181.826 183.572 177.322 184.139 172.732 184.225L113.58 256.729L52.5176 181.884L50.4719 174.309C46.8308 175.098 34.8503 176.673 30.0073 164.708C26.2003 155.302 30.9896 146.608 41.2149 140.033L4.85938 5.41797L96.4033 41.1739L86.7177 57.5152H82.2937L85.9211 70.857C88.2325 59.2246 94.6375 53.1073 113.58 53.1073C133.065 53.1073 136.259 55.8267 139.17 66.7302C139.474 67.8691 140.015 69.9219 140.74 72.6861Z" fill="#0E5B4B"/>
<path fill-rule="evenodd" clip-rule="evenodd" d="M92.3337 54.4736C97.0108 51.4908 103.746 49.829 113.581 49.829C123.725 49.829 129.84 50.7442 133.839 52.8083L125.965 39.525L227.162 0L225.465 6.27364L187.891 145.4C191.568 146.135 196.459 147.444 200.628 149.658C205.081 152.024 208.669 155.433 209.876 159.95C211.36 165.516 209.035 170.722 204.907 174.995C199.516 180.575 191.092 184.491 187.043 185.574C182.905 186.679 178.657 187.279 174.327 187.458L113.581 261.918L49.5348 183.415L48.0693 177.988C42.1274 178.552 31.7027 177.636 26.9685 165.939C22.8342 155.724 27.0865 146.059 37.4407 138.634L0 0L101.194 39.525L92.3337 54.4736ZM140.741 72.6867C140.015 69.9226 139.475 67.8698 139.171 66.7308C136.26 55.8273 133.066 53.1079 113.581 53.1079C94.6382 53.1079 88.2332 59.2252 85.9218 70.8576L82.2944 57.5158H86.7184L96.404 41.1745L4.86009 5.41859L41.2156 140.034C30.9903 146.609 26.201 155.302 30.008 164.708C34.851 176.674 46.8315 175.099 50.4727 174.31L52.5183 181.884L113.581 256.729L172.733 184.226C177.323 184.139 181.827 183.573 186.195 182.406C192.378 180.754 209.671 171.885 206.706 160.796C204.26 151.638 189.02 148.753 183.787 148.026L222.302 5.41859L130.757 41.1745L140.443 57.5158H144.865L140.741 72.6867Z" fill="white"/>
<path fill-rule="evenodd" clip-rule="evenodd" d="M52.517 181.885L4.85968 5.41797L96.4033 41.174L86.7175 57.5155H82.294L108.548 154.077L113.579 160.533L118.612 154.077L144.866 57.5155H140.442L130.756 41.174L222.301 5.41797L174.642 181.885L113.579 256.732L52.517 181.885Z" fill="#0E5B4B"/>
<path fill-rule="evenodd" clip-rule="evenodd" d="M49.1349 152.139L11.5119 12.8359L89.8524 43.4343L84.1638 53.031H76.4266L104.457 156.128L109.45 162.535C106.569 161.296 103.717 160.091 100.972 158.955L100.363 158.175L70.555 48.5437H81.6077L83.2974 45.6918L18.1636 20.2511L53.693 151.807C51.8756 151.931 50.3067 152.048 49.1349 152.139ZM115.624 165.217L122.708 156.128L150.739 53.031H143.001L137.313 43.4343L215.652 12.8359L170.562 179.792L167.087 184.052C165.749 183.977 163.883 183.832 161.708 183.546L166.48 177.699L209.002 20.2511L143.867 45.6918L145.558 48.5437H156.609L126.801 158.175L119.856 167.086C118.46 166.465 117.045 165.84 115.624 165.217ZM155.948 197.705L113.582 249.636L56.6028 179.792L52.49 164.566C53.5014 163.978 54.8562 163.279 56.5959 162.557L60.6846 177.699L113.582 242.537L150.967 196.713C152.871 197.308 154.687 197.581 155.948 197.705Z" fill="#FFCB00"/>
<path fill-rule="evenodd" clip-rule="evenodd" d="M65.8346 177.842L72.6781 138.989C72.6781 138.989 83.5526 84.3891 85.7347 71.874C87.8778 59.5831 94.0971 53.1097 113.583 53.11C133.068 53.1099 136.26 55.8295 139.173 66.733C140.977 73.4843 151.091 112.371 158.534 141.012C158.899 141.947 159.222 142.928 159.497 143.957L168.55 177.842L65.8346 177.842Z" fill="#0E5B4B"/>
<path fill-rule="evenodd" clip-rule="evenodd" d="M149.025 129.164C140.798 123.579 129.845 122.34 121.827 122.175C112.02 121.972 91.3595 124.271 80.3651 135.115L79.8332 134.926C82.6171 120.901 90.0971 83.0995 91.8678 72.9452C92.6274 68.5871 93.842 65.1231 96.8617 62.8861C100.334 60.3147 105.646 59.3356 113.582 59.3364C118.926 59.336 122.93 59.526 125.99 60.1077C127.921 60.4758 129.324 60.9081 130.313 61.8141C131.846 63.2223 132.376 65.4069 133.16 68.3415C134.693 74.0779 142.23 103.026 149.025 129.164Z" fill="#30796A"/>
<path fill-rule="evenodd" clip-rule="evenodd" d="M117.784 122.223L110.511 73.9398C109.326 67.4455 105.557 68.9986 102.57 70.0078L102.57 70.0059C102.434 70.0971 102.314 70.2001 102.203 70.3209C101.27 71.3428 101.168 72.8467 100.875 74.5153C99.4431 82.7287 93.9183 110.882 90.4728 128.315C86.6939 130.08 83.2066 132.312 80.3651 135.115L79.8332 134.926C82.6171 120.901 90.0971 83.0995 91.8678 72.9452C92.6274 68.5871 93.842 65.1231 96.8617 62.8861C100.334 60.3147 105.646 59.3356 113.582 59.3364C118.926 59.336 122.93 59.526 125.99 60.1077C127.921 60.4758 129.324 60.9081 130.313 61.8141C131.846 63.2223 132.376 65.4069 133.16 68.3415C134.693 74.0779 142.23 103.026 149.025 129.164C140.798 123.579 129.845 122.34 121.827 122.175C120.627 122.15 119.269 122.163 117.784 122.223Z" fill="#478D7F"/>
<path fill-rule="evenodd" clip-rule="evenodd" d="M152.374 138.236C155.079 148.935 156.935 156.51 156.935 156.51L120.54 140.898L118.691 128.59C119.822 128.559 120.876 128.554 121.825 128.574C130.989 128.764 143.993 130.354 152.374 138.236Z" fill="#FFCB00"/>
<path fill-rule="evenodd" clip-rule="evenodd" d="M43.8918 149.688L4.95828 5.52734L96.3043 41.2061L86.6775 57.4476H82.2058L110.555 161.713L43.8918 149.688Z" fill="#0E5B4B"/>
<path fill-rule="evenodd" clip-rule="evenodd" d="M104.453 156.124L47.4309 145.838L11.5107 12.8359L89.8489 43.4334L84.1605 53.0299H76.4235L104.453 156.124ZM97.9346 150.149L70.245 48.3073H81.4699L82.9507 45.8092L18.5108 20.6399L51.2105 141.721L97.9346 150.149Z" fill="#FFCB00"/>
<path fill-rule="evenodd" clip-rule="evenodd" d="M61.6063 131.727C118.433 116.544 155.877 164.295 177.207 158.596C184.247 156.716 182.029 147.815 182.029 147.815C182.029 147.815 203.747 149.708 206.71 160.797C209.672 171.886 192.38 180.755 186.198 182.407C144.521 193.541 90.7336 149.992 62.9906 157.405C47.2299 161.615 48.822 163.864 49.4443 166.194L51.5417 174.044C51.5417 174.044 35.7549 178.901 30.0105 164.709C24.2345 150.439 38.8456 137.808 61.6063 131.727Z" fill="#0E5B4B"/>
<path fill-rule="evenodd" clip-rule="evenodd" d="M51.1163 144.774C38.9712 149.083 37.8479 157.485 37.8478 159.98C37.848 160.969 38.5997 164.993 44.1472 167.848C45.8965 168.748 47.3171 169.093 47.3244 169.097C47.4887 169.201 47.7042 169.251 47.8166 169.409C47.8184 169.411 47.9482 169.978 47.9473 169.98C47.8442 170.143 47.7947 170.359 47.6364 170.471C47.3317 170.687 47.3033 170.636 46.9329 170.585C46.1675 170.481 44.4368 170.149 42.522 169.349C36.5379 166.847 34.6961 162.425 34.1863 159.659C33.2381 154.515 37.0604 149.767 37.5944 149.083C38.9223 147.378 40.3174 146.056 41.1726 145.287C41.2325 145.233 42.489 144.187 43.8948 143.261C45.5113 142.197 48.6804 140.238 53.8172 138.331C53.8305 138.325 55.4595 137.734 57.7493 137.098C72.0745 133.124 94.0788 133.16 107.183 137.163C135.476 145.806 158.804 163.933 173.885 165.04C195.425 166.621 201.68 163.582 201.68 163.582C204.686 163.582 185.825 193.935 139.793 170.607C106.574 153.772 80.8681 137.224 51.1163 144.774ZM186.534 153.59C186.531 153.488 186.535 153.484 186.609 153.411C186.629 153.392 186.674 153.345 186.927 153.311C187.696 153.209 188.575 153.263 189.549 153.392C189.609 153.401 190.578 153.543 191.534 153.775C192.661 154.048 192.919 154.138 193.033 154.181C193.97 154.51 194.226 154.625 194.599 154.778C194.64 154.794 194.999 154.97 195.008 154.975C195.043 154.998 195.841 155.572 195.953 155.656C196.01 155.701 196.901 156.411 197.145 156.617C198.262 157.575 198.901 158.168 198.976 158.237C199.1 158.348 199.122 158.338 199.165 158.498C199.166 158.501 199.121 158.81 199.122 158.81C199.033 158.877 198.966 158.981 198.863 159.008C198.828 159.016 198.778 159.029 198.445 158.92C197.61 158.65 197.608 158.658 195.619 158.058C195.035 157.884 195.033 157.891 194.454 157.704C193.817 157.498 193.815 157.507 193.76 157.485C193.444 157.348 192.446 156.76 191.872 156.436C191.794 156.391 189.347 154.769 187.77 154.149C187.106 153.889 186.82 153.86 186.788 153.848C186.596 153.775 186.532 153.795 186.534 153.59Z" fill="#30796A"/>
<path fill-rule="evenodd" clip-rule="evenodd" d="M42.2083 144.467C42.6809 144.107 43.2732 143.674 43.895 143.264C45.5115 142.199 48.6806 140.241 53.8174 138.333C53.8307 138.328 55.4597 137.737 57.7494 137.101C72.0747 133.127 94.079 133.163 107.183 137.165C135.476 145.809 158.804 163.936 173.885 165.043C186.381 165.961 193.737 165.322 197.705 164.625C195.48 168.256 188.696 175.943 171.468 175.029C149.01 173.835 131.669 154.448 91.9341 143.229C64.1595 135.386 47.2469 141.95 42.2083 144.467Z" fill="#478D7F"/>
<path fill-rule="evenodd" clip-rule="evenodd" d="M123.562 192.227L129.083 185.65C132.943 189.988 136.602 194.609 139.99 199.609L134.21 204.603L136.762 199.671C133.831 197.561 131.337 195.434 129.23 193.292L123.276 200.388L132.15 210.967L113.581 233.097L95.0112 210.967L103.888 200.388L97.9336 193.292C95.7682 195.682 93.2632 197.758 90.5854 199.674L92.9517 204.603L86.9883 199.606C90.2687 194.632 93.9321 189.953 98.0802 185.65L103.772 192.433C103.982 191.963 104.247 191.41 104.493 191.015C105.552 189.317 108.044 185.781 108.36 185.331C108.774 184.744 109.198 184.164 109.624 183.584C110.06 182.992 110.494 182.397 110.947 181.817C111.813 180.708 112.715 179.628 113.581 178.52C114.039 179.1 114.517 179.664 114.975 180.245C115.559 180.989 118.097 184.213 121.936 189.82C122.483 190.619 123.077 191.39 123.562 192.227ZM105.447 194.429L110.447 200.388L101.57 210.967L113.581 225.281L125.592 210.967L116.713 200.388L121.54 194.638C120.977 194.214 120.488 193.693 119.962 193.22C119.6 192.896 117.151 190.693 115.542 189.073C115.197 188.725 114.855 188.374 114.52 188.015C114.203 187.67 113.902 187.306 113.581 186.961C112.97 187.61 112.395 188.293 111.785 188.943C110.734 190.062 108.316 192.188 108.005 192.461C107.484 192.92 106.97 193.389 106.427 193.822C106.212 193.993 105.973 194.132 105.737 194.271C105.707 194.288 105.6 194.346 105.447 194.429ZM113.581 210.284C113.34 210.517 113.125 210.773 112.885 211.005C112.766 211.121 112.635 211.22 112.506 211.323C112.415 211.394 112.047 211.688 111.319 212.16C111.085 212.313 110.857 212.474 110.606 212.597C110.405 212.693 110.394 212.655 109.67 212.754L108.777 212.884C108.815 212.549 108.804 212.208 108.842 211.873C108.872 211.613 108.919 211.353 108.982 211.101C109.03 210.899 109.084 210.701 109.175 210.517C109.598 209.669 110.83 207.777 110.982 207.545C111.183 207.237 111.393 206.933 111.604 206.633C111.819 206.325 112.033 206.014 112.261 205.714C112.692 205.147 113.149 204.6 113.581 204.033C113.81 204.33 114.052 204.614 114.278 204.911C116.02 207.179 117.42 209.461 117.67 209.871C117.946 210.325 118.23 210.773 118.462 211.251C118.52 211.371 118.52 211.507 118.524 211.64C118.531 211.825 118.52 212.013 118.5 212.201C118.476 212.43 118.411 212.655 118.384 212.884L117.277 212.973C117.181 212.976 117.079 212.997 116.997 212.952C116.648 212.778 115.381 211.852 115.244 211.75C115.135 211.671 114.452 211.172 113.943 210.67C113.816 210.547 113.707 210.407 113.581 210.284Z" fill="#478D7F"/>
<path fill-rule="evenodd" clip-rule="evenodd" d="M97.9945 190.24L107.167 200.388L98.2909 210.966L113.581 229.189V233.098L95.0113 210.966L103.888 200.388L97.9341 193.293L97.9945 190.24ZM103.008 195.787L103.771 192.432L103.772 192.434C103.982 191.963 104.247 191.41 104.494 191.015C105.553 189.319 108.044 185.78 108.361 185.332C108.775 184.745 109.198 184.163 109.624 183.585C110.06 182.993 110.494 182.398 110.947 181.818C111.813 180.708 112.715 179.629 113.581 178.52V182.741L103.008 195.787ZM113.581 182.741L124.553 194.881L120.352 200.482L128.878 211.113L113.581 229.189V225.281L125.592 210.966L116.715 200.388L121.539 194.639C120.976 194.215 120.488 193.694 119.962 193.221C119.601 192.896 117.15 190.694 115.543 189.073C115.198 188.727 114.855 188.374 114.522 188.015C114.201 187.67 113.902 187.306 113.581 186.961V182.741ZM97.9945 190.24L88.9677 199.441L92.9518 204.605L86.9883 199.607C90.2463 194.667 93.8819 190.019 97.9945 185.739V190.24ZM124.553 194.881L123.576 192.244L124.29 191.362L129.081 185.651H129.083L129.235 190.2L137.778 199.218L139.847 199.401L139.989 199.61L134.211 204.605L136.762 199.672C133.845 197.57 131.356 195.451 129.252 193.317L129.235 193.264V190.546L124.553 194.881ZM118.386 212.877V212.886L117.276 212.974C117.181 212.975 117.079 212.996 116.995 212.953C116.65 212.78 115.379 211.852 115.243 211.75C115.134 211.671 114.451 211.172 113.943 210.671C113.817 210.547 113.707 210.409 113.581 210.285C113.341 210.518 113.125 210.775 112.885 211.006C112.766 211.122 112.635 211.222 112.506 211.324C112.415 211.396 112.048 211.69 111.319 212.161C111.085 212.313 110.857 212.475 110.607 212.597C110.405 212.694 110.395 212.656 109.67 212.755L108.777 212.886C108.815 212.549 108.804 212.209 108.842 211.873C108.872 211.612 108.92 211.353 108.982 211.099C109.031 210.901 109.084 210.701 109.175 210.518C109.598 209.669 110.83 207.777 110.982 207.544C111.183 207.237 111.393 206.935 111.604 206.633C111.819 206.324 112.033 206.015 112.261 205.715C112.693 205.148 113.15 204.601 113.581 204.034V207.891L118.386 212.877Z" fill="#30796A"/>
</svg>
