<svg width="260" height="259" viewBox="0 0 260 259" fill="none" xmlns="http://www.w3.org/2000/svg">
<path d="M129.586 249.954C196.455 249.954 250.664 195.9 250.664 129.221C250.664 62.5423 196.455 8.48828 129.586 8.48828C62.7163 8.48828 8.50781 62.5423 8.50781 129.221C8.50781 195.9 62.7163 249.954 129.586 249.954Z" fill="#FFCB00"/>
<path fill-rule="evenodd" clip-rule="evenodd" d="M129.588 13.3359C193.73 13.3359 245.808 65.2618 245.808 129.22C245.808 193.18 193.73 245.104 129.588 245.104C65.4493 245.104 13.375 193.18 13.375 129.22C13.375 65.2618 65.4493 13.3359 129.588 13.3359ZM129.588 43.063C81.9032 43.063 43.187 81.6689 43.187 129.22C43.187 176.769 81.9032 215.375 129.588 215.375C177.278 215.375 215.994 176.769 215.994 129.22C215.994 81.6689 177.278 43.063 129.588 43.063Z" fill="#0E5B4B"/>
<path fill-rule="evenodd" clip-rule="evenodd" d="M129.587 0C201.114 0 259.18 57.9017 259.18 129.22C259.18 200.538 201.114 258.439 129.587 258.439C58.0666 258.439 0 200.538 0 129.22C0 57.9017 58.0666 0 129.587 0ZM129.587 8.4865C62.7638 8.4865 8.51075 62.585 8.51075 129.22C8.51075 195.856 62.7638 249.955 129.587 249.955C196.413 249.955 250.666 195.856 250.666 129.22C250.666 62.585 196.413 8.4865 129.587 8.4865Z" fill="white"/>
<path fill-rule="evenodd" clip-rule="evenodd" d="M129.588 3.63672C199.099 3.63672 255.532 59.9083 255.532 129.219C255.532 198.533 199.099 254.8 129.588 254.8C60.0808 254.8 3.64844 198.533 3.64844 129.219C3.64844 59.9083 60.0808 3.63672 129.588 3.63672ZM129.588 8.48605C62.7647 8.48605 8.51163 62.5845 8.51163 129.219C8.51163 195.856 62.7647 249.954 129.588 249.954C196.414 249.954 250.667 195.856 250.667 129.219C250.667 62.5845 196.414 8.48605 129.588 8.48605Z" fill="#0E5B4B"/>
<path fill-rule="evenodd" clip-rule="evenodd" d="M115.85 105.205L128.556 151.804L129.588 153.124L130.62 151.804L143.326 105.205H142.312L135.885 94.3924L187.441 74.3125L162.211 167.468L129.588 207.341L96.9659 167.468L71.7355 74.3125L123.291 94.3924L116.865 105.205H115.85Z" fill="#0E5B4B"/>
<path fill-rule="evenodd" clip-rule="evenodd" d="M129.587 201.092L100.57 165.625L77.607 80.8438L117.502 96.3817L114.605 101.255H110.665L124.94 153.608L129.587 159.554L134.234 153.608L148.509 101.255H144.568L141.672 96.3817L181.566 80.8438L158.604 165.625L129.587 201.092ZM129.587 196.924L156.2 164.395L177.651 85.197L145.531 97.707L146.074 98.6205H151.965L136.644 154.81L129.587 163.839L122.53 154.81L107.208 98.6205H113.1L113.643 97.707L81.5226 85.197L102.974 164.395L129.587 196.924Z" fill="#FFCB00"/>
<path d="M69.0764 203.031L60.2232 213.286L58.3906 211.715L65.4216 203.568L62.6085 203.346L64.3275 201.352L67.394 201.583L69.0764 203.031Z" fill="#FFCB00"/>
<path d="M76.5386 212.371C76.7777 212.006 76.8819 211.681 76.8503 211.391C76.8192 211.105 76.5964 210.824 76.1825 210.553C75.7685 210.282 75.4198 210.184 75.1363 210.268C74.8532 210.351 74.5914 210.573 74.3523 210.938L73.036 212.937C72.579 213.627 72.6986 214.203 73.3941 214.661C73.9463 215.021 74.378 215.193 74.6892 215.178L76.5386 212.371ZM72.3869 209.603C72.9599 208.731 73.6668 208.209 74.5085 208.036C75.3497 207.864 76.2921 208.12 77.3359 208.8C78.3791 209.484 78.9852 210.243 79.1536 211.08C79.3226 211.913 79.1206 212.77 78.5476 213.637L74.5554 219.7C74.0041 220.537 73.2884 221.005 72.4076 221.104C71.5274 221.207 70.5597 220.912 69.5056 220.222C68.451 219.528 67.6928 218.877 67.2305 218.257L68.4816 216.361C68.9736 217.075 69.6835 217.735 70.6111 218.345C71.5383 218.951 72.2343 218.902 72.6986 218.198L73.5684 216.878C73.0957 216.804 72.4723 216.513 71.6998 216.006C70.9267 215.503 70.4694 214.883 70.3266 214.154C70.1843 213.42 70.3814 212.647 70.9184 211.834L72.3869 209.603Z" fill="#FFCB00"/>
<path d="M83.5259 222.579C82.4654 222.056 82.1971 221.268 82.7203 220.209C83.2434 219.155 84.0352 218.884 85.0952 219.407C86.1557 219.929 86.4239 220.717 85.9008 221.776C85.3777 222.835 84.5859 223.101 83.5259 222.579Z" fill="#478D7F"/>
<path d="M100.107 219.939L102.448 220.747L95.4341 232.647L92.2891 231.558L94.135 217.875L96.4378 218.668L95.5235 224.795C95.4148 225.47 95.2326 226.485 94.9757 227.844C94.7189 229.209 94.5855 229.962 94.5751 230.115C94.7075 229.893 95.0962 229.154 95.7423 227.903C96.3884 226.647 96.8315 225.8 97.0706 225.352L100.107 219.939Z" fill="white"/>
<path d="M106.773 224.968C106.966 224.002 107.435 223.313 108.191 222.914C108.941 222.51 109.924 222.431 111.135 222.668C112.35 222.904 113.268 223.214 113.891 223.594L113.451 225.82C112.755 225.377 111.9 225.052 110.878 224.85C109.85 224.648 109.263 224.938 109.109 225.712L109.006 226.234C108.927 226.623 108.941 226.938 109.04 227.179C109.139 227.421 109.376 227.692 109.747 227.992L111.732 229.691C112.671 230.47 113.026 231.44 112.794 232.602L112.567 233.745C112.374 234.725 111.866 235.415 111.046 235.809C110.226 236.208 109.159 236.277 107.835 236.016C106.516 235.755 105.553 235.415 104.945 235.001L105.39 232.755C106.151 233.267 107.059 233.627 108.107 233.834C109.391 234.085 110.112 233.809 110.27 233.011L110.369 232.504C110.438 232.169 110.418 231.893 110.32 231.681C110.221 231.465 110.008 231.228 109.687 230.962L107.776 229.376C106.704 228.48 106.289 227.411 106.536 226.17L106.773 224.968Z" fill="white"/>
<path d="M120.609 224.188L127.114 224.572L126.996 226.64L122.861 226.399L122.649 229.965L126.23 230.177L126.107 232.251L122.525 232.039L122.303 235.767L126.437 236.009L126.314 238.082L119.809 237.698L120.609 224.188Z" fill="white"/>
<path d="M139.883 224.074L140.021 226.143L137.512 226.31L138.292 237.747L135.902 237.91L135.121 226.473L132.612 226.645L132.469 224.577L139.883 224.074Z" fill="white"/>
<path d="M148.27 236.499L145.766 223.201L148.122 222.757L150.626 236.061L148.27 236.499ZM146.492 220.009L148.324 219.664L147.391 222.092L146.087 222.334L146.492 220.009Z" fill="white"/>
<path d="M160.314 219.527L162.556 218.812L166.686 231.703L164.404 232.432C161.045 228.314 159.113 225.915 158.6 225.226C158.091 224.541 157.809 224.162 157.76 224.093C157.77 224.117 157.873 224.339 158.076 224.763C158.605 225.851 159.143 227.235 159.681 228.915L161.138 233.471L158.911 234.18L154.781 221.29L157.103 220.551C159.993 224.068 161.677 226.147 162.156 226.782C162.635 227.417 163.001 227.905 163.243 228.25C163.485 228.595 163.628 228.792 163.673 228.851C163.658 228.797 163.549 228.57 163.346 228.161C162.783 226.959 162.245 225.56 161.736 223.97L160.314 219.527Z" fill="white"/>
<path d="M173.765 223.485C172.698 223.983 171.913 223.702 171.409 222.633C170.905 221.569 171.192 220.781 172.264 220.284C173.335 219.781 174.121 220.067 174.62 221.131C175.124 222.2 174.837 222.983 173.765 223.485Z" fill="#478D7F"/>
<path d="M179.252 210.537C180.418 209.813 181.43 209.507 182.285 209.621C183.144 209.734 183.836 210.217 184.364 211.064L185.085 212.226C185.733 213.265 185.742 214.152 185.11 214.881C186.009 214.526 186.785 214.871 187.432 215.911L188.351 217.388C188.884 218.24 189.007 219.073 188.736 219.895C188.459 220.718 187.807 221.447 186.77 222.092C185.728 222.732 184.834 223.136 184.078 223.294L182.873 221.363C183.732 221.22 184.503 220.939 185.179 220.516C185.861 220.097 186.251 219.728 186.36 219.413C186.469 219.097 186.414 218.772 186.207 218.437L185.57 217.413C185.347 217.058 185.095 216.851 184.824 216.797C184.547 216.743 184.201 216.841 183.786 217.098L182.542 217.871L181.381 216.009L182.611 215.246C183.011 214.999 183.238 214.723 183.287 214.433C183.337 214.137 183.248 213.802 183.021 213.433L182.453 212.527C182.028 211.847 181.341 211.803 180.388 212.394C179.588 212.886 178.985 213.389 178.575 213.906L177.395 212.01C177.824 211.527 178.442 211.034 179.252 210.537Z" fill="#FFCB00"/>
<path d="M193.635 204.259C193.358 203.924 193.076 203.727 192.79 203.672C192.503 203.618 192.172 203.751 191.792 204.066C191.407 204.382 191.214 204.687 191.214 204.978C191.209 205.273 191.348 205.588 191.624 205.923L193.155 207.761C193.689 208.401 194.272 208.455 194.914 207.928C195.423 207.504 195.714 207.145 195.788 206.844L193.635 204.259ZM189.767 207.406C189.1 206.608 188.809 205.781 188.888 204.923C188.967 204.071 189.49 203.249 190.449 202.456C191.407 201.658 192.316 201.303 193.165 201.387C194.015 201.471 194.776 201.914 195.442 202.712L200.086 208.293C200.728 209.061 200.965 209.883 200.807 210.75C200.644 211.622 200.081 212.46 199.108 213.262C198.139 214.065 197.29 214.597 196.559 214.853L195.107 213.11C195.936 212.849 196.776 212.366 197.631 211.657C198.485 210.952 198.643 210.273 198.105 209.627L197.092 208.411C196.88 208.839 196.42 209.347 195.709 209.938C194.998 210.524 194.272 210.78 193.526 210.701C192.785 210.622 192.103 210.209 191.476 209.46L189.767 207.406Z" fill="#FFCB00"/>
<path d="M23.956 103.464L24.5005 101.055L37.1445 106.67L36.4127 109.909L22.5664 109.613L23.1023 107.242L29.3083 107.462C29.9919 107.494 31.0259 107.561 32.4111 107.663C33.7963 107.765 34.5643 107.812 34.7149 107.806C34.4816 107.699 33.7038 107.396 32.3814 106.897C31.059 106.397 30.1615 106.054 29.6893 105.866L23.956 103.464Z" fill="white"/>
<path d="M41.3229 93.7161L37.9223 93.1319L36.8435 95.9782L39.7892 97.7638L38.9838 99.8894L27.2812 92.4812L28.4508 89.3945L42.1352 91.572L41.3229 93.7161ZM35.086 94.9145L35.8913 92.7889L29.8502 91.7382L35.086 94.9145Z" fill="white"/>
<path d="M32.457 80.4266L33.5986 78.3242L43.7567 83.8099L45.5775 80.4567L47.3549 81.4164L44.392 86.8716L32.457 80.4266Z" fill="white"/>
<path d="M53.395 72.3902L50.2582 70.9561L48.4839 73.4315L50.8721 75.9103L49.5467 77.759L40.1406 67.6063L42.0648 64.9219L54.7316 70.5256L53.395 72.3902ZM47.0586 71.9541L48.3835 70.1058L42.8147 67.5454L47.0586 71.9541Z" fill="white"/>
<path d="M59.6964 58.7309L60.5483 59.5293C61.2801 60.2144 61.5969 61.0085 61.4992 61.9107C61.4015 62.813 60.8914 63.7539 59.9689 64.733C59.0464 65.7125 58.2483 66.3478 57.5755 66.6388L55.9001 65.0695C56.7387 64.6986 57.5247 64.1243 58.2569 63.347C59.1523 62.3962 59.3017 61.6416 58.7046 61.0823L58.3292 60.7308C58.0787 60.496 57.8364 60.3638 57.6018 60.3341C57.3672 60.3041 57.0512 60.3556 56.6534 60.4895L54.2945 61.2617C52.9627 61.6948 51.8344 61.4785 50.9102 60.6127L50.0144 59.774C49.2925 59.0975 48.9602 58.3343 49.0175 57.4844C49.0751 56.635 49.5267 55.7611 50.3721 54.8635C51.218 53.9656 51.9674 53.3531 52.6204 53.0251L54.2816 54.5807C53.5352 54.9301 52.8051 55.4842 52.0906 56.2427C51.376 57.0011 51.308 57.651 51.8856 58.1918L52.2752 58.5571C52.564 58.8275 52.8378 58.9846 53.0961 59.028C53.3544 59.0709 53.7104 59.0155 54.1632 58.8619L56.6621 58.0849C57.8183 57.7042 58.8299 57.9193 59.6964 58.7309ZM49.1543 55.146L46.7773 54.4373L47.6185 53.5445L48.9564 53.7407L48.6765 52.4212L49.5043 51.543L50.3618 53.8643L49.1543 55.146Z" fill="white"/>
<path d="M59.6342 50.1464C59.0044 49.3837 58.7728 48.5844 58.9386 47.7491C59.1043 46.9134 59.6643 46.1043 60.6178 45.3218C61.5717 44.5393 62.3935 44.0272 63.0835 43.7852L64.5311 45.5394C63.7464 45.791 62.9513 46.2472 62.1455 46.9087C61.3397 47.5697 61.1886 48.2054 61.6922 48.8158L62.0323 49.2279C62.2841 49.5331 62.5351 49.7232 62.786 49.7992C63.0366 49.8747 63.3964 49.8653 63.8656 49.7704L66.4437 49.3184C67.6391 49.0879 68.6145 49.4305 69.37 50.3456L70.1129 51.2457C70.7509 52.0188 70.9635 52.8463 70.7509 53.7289C70.5382 54.6114 69.9115 55.4797 68.8711 56.333C67.8306 57.1868 66.9581 57.7152 66.2534 57.9186L64.7928 56.1489C65.6723 55.8875 66.525 55.4183 67.3511 54.7401C68.361 53.9117 68.6055 53.182 68.0855 52.5514L67.7579 52.1548C67.5396 51.8904 67.3162 51.7282 67.0872 51.6685C66.8586 51.6089 66.5384 51.62 66.1269 51.702L63.6883 52.1677C62.3117 52.4274 61.2204 52.069 60.4146 51.0925L59.6342 50.1464Z" fill="white"/>
<path d="M69.4414 38.8437L71.468 37.6036L78.5664 49.1397L76.5397 50.3794L69.4414 38.8437ZM73.8833 36.1262L76.0619 34.793L77.3042 41.7985L83.3294 46.2257L81.0828 47.6001L75.1967 43.1343L73.8833 36.1262Z" fill="white"/>
<path d="M84.4975 27.2564L86.2004 26.5039L85.8496 29.0793L84.6361 29.6159L84.4975 27.2564ZM92.2045 41.9611L90.0126 42.9299L88.246 38.9561L81.5234 31.8775L83.7515 30.8928L85.6606 32.945C86.7127 34.1082 87.6089 35.1818 88.3493 36.1656C88.1108 34.8161 87.9124 33.4266 87.754 31.9981L87.5013 29.2356L89.6932 28.2668L90.4379 37.9873L92.2045 41.9611Z" fill="white"/>
<path d="M110.398 22.4949L112.769 22.0352L115.357 35.3213L112.985 35.781L111.917 30.2919L108.667 30.9212L109.739 36.4103L107.384 36.8661L104.793 23.58L107.148 23.1241L108.262 28.8458L111.512 28.2166L110.398 22.4949Z" fill="white"/>
<path d="M126.069 24.1665C126.026 23.272 125.513 22.8475 124.532 22.8934C123.55 22.9393 123.077 23.4098 123.12 24.3043L123.443 31.2317C123.486 32.1267 123.998 32.5508 124.984 32.5053C125.965 32.4593 126.434 31.9889 126.396 31.0944L126.069 24.1665ZM120.739 24.2966C120.692 23.2703 120.976 22.4363 121.592 21.7941C122.212 21.1524 123.154 20.8017 124.42 20.7425C125.685 20.6837 126.663 20.9447 127.343 21.5258C128.027 22.1075 128.389 22.911 128.44 23.9373L128.776 31.1017C128.824 32.128 128.535 32.9624 127.911 33.6046C127.287 34.2471 126.34 34.5978 125.074 34.657C123.809 34.7158 122.836 34.4549 122.16 33.8728C121.484 33.2912 121.123 32.4873 121.075 31.4609L120.739 24.2966Z" fill="white"/>
<path d="M136.116 20.9414L138.484 21.168L137.188 34.6405L134.82 34.4134L136.116 20.9414ZM141.303 21.4385L143.851 21.6823L140.61 28.0212L142.749 35.1732L140.124 34.9221L138.122 27.8225L141.303 21.4385Z" fill="white"/>
<path d="M150.982 22.875L157.332 24.3413L156.863 26.3621L152.829 25.4311L152.02 28.9152L155.515 29.7217L155.046 31.7426L151.551 30.936L150.707 34.5743L154.74 35.5057L154.271 37.5265L147.922 36.0607L150.982 22.875Z" fill="white"/>
<path d="M164.048 26.3906L166.321 27.159L163.256 36.1583C162.701 37.792 161.956 39.2729 161.031 40.6009L159.787 42.3497L157.406 41.5427L158.629 39.7875C159.739 38.2152 160.523 36.7554 160.979 35.408L164.048 26.3906Z" fill="white"/>
<path d="M176.747 35.2072C177.139 34.401 176.894 33.7842 176.007 33.3567C175.12 32.9292 174.483 33.1185 174.091 33.9246L171.061 40.167C170.669 40.9731 170.915 41.5903 171.801 42.0178C172.688 42.4454 173.325 42.2561 173.717 41.4495L176.747 35.2072ZM172.004 32.785C172.451 31.8604 173.101 31.2629 173.949 30.9929C174.802 30.7225 175.796 30.8628 176.937 31.414C178.077 31.9647 178.809 32.6579 179.132 33.4932C179.451 34.3289 179.39 35.2089 178.938 36.1334L175.805 42.5892C175.357 43.5142 174.703 44.1099 173.85 44.3773C172.994 44.6447 171.995 44.5027 170.85 43.952C169.709 43.4008 168.982 42.7093 168.668 41.8766C168.353 41.0443 168.418 40.1657 168.87 39.2407L172.004 32.785Z" fill="white"/>
<path d="M191.587 40.1679L193.644 41.5423L183.838 51.2808L181.07 49.4334L186.335 36.6602L188.362 38.0127L185.922 43.7065C185.642 44.3306 185.207 45.2685 184.613 46.5206C184.019 47.7722 183.696 48.4693 183.649 48.6118C183.834 48.4332 184.398 47.8186 185.341 46.7687C186.283 45.7183 186.929 45.0075 187.273 44.6358L191.587 40.1679Z" fill="white"/>
<path d="M203.839 45.9787L205.229 47.2119L202.733 47.9613L201.742 47.0822L203.839 45.9787ZM193.611 59.0669L191.82 57.4796L194.713 54.2294L198.389 45.1953L200.21 46.8088L199.13 49.3919C198.501 50.8286 197.894 52.0867 197.304 53.1667C198.437 52.3906 199.62 51.6347 200.86 50.899L203.275 49.5246L205.07 51.1123L196.508 55.8168L193.611 59.0669Z" fill="white"/>
<path d="M215.562 62.7852L216.953 64.7099L205.933 72.6129L204.547 70.6882L215.562 62.7852ZM218.606 67.0037L220.099 69.073L213.182 70.8204L209.196 77.1362L207.659 75.0029L211.693 68.8228L218.606 67.0037Z" fill="white"/>
<path d="M223.879 75.1836L225.016 77.2881L214.848 82.7506L216.66 86.1081L214.878 87.0636L211.93 81.6015L223.879 75.1836Z" fill="white"/>
<path d="M231.599 91.6744L232.451 93.8871L222.761 97.606C221.801 97.9752 220.919 97.9683 220.11 97.5863C219.305 97.2038 218.676 96.4256 218.224 95.2517C217.768 94.0777 217.716 93.0827 218.056 92.2663C218.401 91.4499 219.055 90.8576 220.015 90.4884L229.705 86.7695L230.561 88.9822L220.979 92.6586C220.144 92.9801 219.894 93.5901 220.243 94.4872C220.587 95.3847 221.181 95.6723 222.021 95.3508L231.599 91.6744Z" fill="white"/>
<path d="M233.409 109.446L232.207 109.717C230.985 109.994 230.103 109.721 229.564 108.897C229.491 109.941 228.807 110.608 227.52 110.9L226.224 111.193C224.218 111.648 222.97 110.809 222.483 108.676L221.523 104.457L234.76 101.461L235.694 105.565C236.181 107.697 235.414 108.991 233.409 109.446ZM233.641 105.664L233.314 104.219L229.741 105.028L230.068 106.474C230.262 107.321 230.757 107.655 231.557 107.474L232.754 107.203C233.542 107.025 233.835 106.512 233.641 105.664ZM225.845 108.888L227.137 108.595C227.937 108.415 228.239 107.9 228.045 107.053L227.692 105.492L224.02 106.323L224.373 107.884C224.567 108.731 225.058 109.066 225.845 108.888Z" fill="white"/>
<path fill-rule="evenodd" clip-rule="evenodd" d="M49.7904 194.76C48.6824 193.79 45.7215 191.155 41.9696 186.6C41.0654 185.502 38.1249 181.766 35.5965 177.682C34.0767 175.227 33.3601 173.866 32.839 172.878C32.7888 172.782 32.2967 171.849 32.2171 171.678C32.2165 171.676 31.8367 170.792 31.4288 169.781C28.7707 163.19 27.3358 157.647 26.5033 153.626C26.4957 153.589 26.4825 153.553 26.4805 153.515C26.4788 153.484 26.6139 151.964 26.6238 151.903C26.6565 151.703 26.9484 150.504 26.9781 150.382C27.0789 149.968 27.0825 149.887 27.493 148.624C27.7773 147.75 28.0339 147.025 28.0831 146.887C29.5319 149.03 29.5768 148.999 29.8628 149.435C30.5603 150.498 30.9748 151.081 30.9827 151.096C31.0312 151.188 31.2627 151.635 31.6471 152.34C31.6669 152.377 31.692 152.41 31.7066 152.449C31.767 152.608 32.6712 157.825 35.2818 164.949C36.257 167.611 37.1064 169.541 37.1242 169.592C37.2418 169.929 37.7368 171.347 38.6661 173.784C39.1024 174.927 40.2054 177.707 41.3662 180.251C41.6169 180.8 42.9028 183.619 44.773 186.983C47.1438 191.247 49.1104 193.855 49.7904 194.76ZM209.536 194.76C210.854 193.005 213.232 189.741 216.333 183.632C217.294 181.74 218.41 179.404 219.972 175.54C220.084 175.258 220.441 174.379 221.336 172.001C221.844 170.644 222.194 169.613 222.204 169.592C222.482 168.875 225.342 162.587 227.267 154.09C227.472 153.178 227.62 152.45 227.62 152.449C227.643 152.387 227.657 152.393 228.017 151.718C228.32 151.147 228.314 151.144 228.344 151.096C228.363 151.067 228.773 150.489 229.463 149.435C229.701 149.077 229.912 148.863 231.243 146.887C231.316 147.09 231.679 148.1 232.155 149.629C232.207 149.808 232.3 150.097 232.703 151.896C232.713 151.944 232.848 153.487 232.848 153.515C232.845 153.519 232.69 154.274 232.521 155.03C230.893 162.293 228.644 168.079 227.112 171.672C227.108 171.679 226.035 173.792 225.2 175.231C223.747 177.737 222.538 179.606 221.012 181.766C218.278 185.643 216.167 188.049 214.879 189.473C212.247 192.381 210.243 194.141 209.536 194.76Z" fill="#478D7F"/>
<path fill-rule="evenodd" clip-rule="evenodd" d="M49.7904 194.76C48.6824 193.79 45.7215 191.155 41.9696 186.6C41.0654 185.502 38.1249 181.766 35.5965 177.682C34.0767 175.227 33.3601 173.866 32.839 172.878C32.7888 172.782 32.2967 171.849 32.2171 171.678C32.2165 171.676 31.8367 170.792 31.4288 169.781C28.7707 163.19 27.3358 157.647 26.5033 153.626C26.4957 153.589 26.4825 153.553 26.4805 153.515C26.4788 153.484 26.6139 151.964 26.6238 151.903C26.6565 151.703 26.9484 150.504 26.9781 150.382C27.0789 149.968 27.0825 149.887 27.493 148.624C27.7773 147.75 28.0339 147.025 28.0831 146.887C30.5702 166.665 40.7278 185.054 49.7904 194.76ZM209.536 194.76C210.854 193.005 213.232 189.741 216.333 183.632C217.294 181.74 218.41 179.404 219.972 175.54C220.084 175.258 220.441 174.379 221.336 172.001C221.844 170.644 222.194 169.613 222.204 169.592C222.482 168.875 225.342 162.587 227.267 154.09C227.472 153.178 227.62 152.45 227.62 152.449C227.643 152.387 227.657 152.393 228.017 151.718C228.32 151.147 228.314 151.144 228.344 151.096C228.363 151.067 228.773 150.489 229.463 149.435C229.701 149.077 229.912 148.863 231.243 146.887C228.756 166.665 218.598 185.054 209.536 194.76Z" fill="#30796A"/>
<path fill-rule="evenodd" clip-rule="evenodd" d="M236.367 124.95L238.779 122.083L243.679 128.337L241.083 130.575L242.23 128.365L238.845 125.507L236.17 128.686L240.158 133.425L231.815 143.34L223.472 133.425L227.46 128.686L224.785 125.507L221.483 128.367L222.546 130.575L219.867 128.336L224.851 122.083L227.19 124.864C227.191 124.85 227.193 124.838 227.195 124.826C227.212 124.699 227.274 124.582 227.328 124.467C227.378 124.359 227.432 124.251 227.504 124.157C227.745 123.845 228.012 123.554 228.266 123.252L231.815 119.035L235.954 123.953C236.037 124.062 236.102 124.186 236.162 124.309C236.227 124.441 236.3 124.574 236.327 124.718C236.342 124.795 236.355 124.872 236.367 124.95ZM228.386 126.284L230.407 128.686L226.419 133.425L231.815 139.838L237.211 133.425L233.223 128.686L235.306 126.211C235.258 126.202 235.211 126.193 235.163 126.183C235.071 126.164 234.982 126.124 234.898 126.08C234.82 126.04 234.743 125.995 234.683 125.933C234.492 125.732 234.326 125.509 234.148 125.298L231.815 122.524L228.828 126.074C228.689 126.219 228.438 126.273 228.401 126.281C228.396 126.282 228.391 126.283 228.386 126.284ZM231.815 133.134L230.693 134.467C230.645 134.511 230.496 134.482 230.479 134.479C230.448 134.473 229.722 134.301 229.656 134.285C229.625 133.953 229.532 133.63 229.5 133.298C229.494 133.227 229.521 133.155 229.542 133.087C229.561 133.026 229.583 132.964 229.62 132.913C229.687 132.822 229.692 132.827 230.523 131.84L231.815 130.305L233.922 132.809C233.965 132.868 233.992 132.939 234.015 133.008C234.042 133.086 234.075 133.166 234.072 133.248C234.061 133.595 233.985 133.938 233.973 134.285C233.691 134.33 233.411 134.39 233.129 134.436C232.853 134.48 232.871 134.389 232.691 134.175L231.815 133.134ZM32.3784 124.95L34.7908 122.083L39.6915 128.337L37.095 130.575L38.241 128.365L34.8565 125.507L32.1819 128.686L36.1697 133.425L27.8268 143.34L19.4832 133.425L23.4717 128.686L20.7964 125.507L17.4952 128.367L18.5579 130.575L15.8789 128.336L20.8621 122.083L23.2015 124.864C23.2029 124.85 23.2051 124.838 23.2066 124.826C23.2234 124.699 23.2862 124.582 23.3395 124.467C23.3899 124.359 23.4439 124.251 23.5163 124.157L27.8268 119.035L31.965 123.953C32.049 124.062 32.1133 124.186 32.1739 124.309C32.2382 124.441 32.3112 124.574 32.339 124.718C32.3536 124.795 32.3667 124.872 32.3784 124.95ZM24.3971 126.284L26.4187 128.686L22.4302 133.425L27.8268 139.838L33.2227 133.425L29.2349 128.686L31.3172 126.211C31.2697 126.202 31.223 126.193 31.1755 126.183C31.082 126.164 30.9936 126.124 30.9097 126.08C30.8322 126.04 30.7548 125.995 30.6942 125.933C30.5028 125.732 30.3385 125.509 30.1603 125.298L27.8268 122.524L24.8397 126.074C24.7009 126.219 24.4504 126.273 24.4131 126.281C24.408 126.282 24.4029 126.283 24.3971 126.284ZM27.8268 133.134L26.705 134.467C26.6561 134.511 26.5071 134.482 26.4903 134.479C26.4603 134.473 25.7336 134.301 25.6679 134.285C25.6365 133.953 25.5437 133.63 25.5123 133.298C25.5057 133.227 25.5328 133.155 25.554 133.087C25.5729 133.026 25.5948 132.964 25.6321 132.913C25.7511 132.751 25.8906 132.606 26.0199 132.452L27.8268 130.305L29.9339 132.809C29.977 132.868 30.0033 132.939 30.0274 133.008C30.0537 133.086 30.0873 133.166 30.0843 133.248C30.0727 133.595 29.9967 133.938 29.985 134.285C29.7031 134.33 29.4234 134.39 29.1407 134.436C28.8647 134.48 28.8822 134.389 28.7025 134.175L27.8268 133.134Z" fill="#478D7F"/>
</svg>
