<svg width="1317" height="1518" viewBox="0 0 1317 1518" fill="none" xmlns="http://www.w3.org/2000/svg">
<path fill-rule="evenodd" clip-rule="evenodd" d="M3.30916e-06 0L586.645 229.139L513.497 352.553H501.987L646.533 884.188L658.243 899.226L669.963 884.188L814.508 352.553H802.991L729.844 229.139L1316.5 0L1029.43 1062.94L658.243 1517.92L287.063 1062.94L3.30916e-06 0ZM304.802 1053.84L658.243 1487.07L1011.69 1053.84L1287.6 32.2232L758.325 238.949L814.101 333.053H840.017L687.751 893.086L658.243 930.945L628.744 893.086L476.478 333.053H502.387L558.166 238.949L28.8993 32.2232L304.802 1053.84Z" fill="white"/>
<path fill-rule="evenodd" clip-rule="evenodd" d="M304.452 1054.02L28.3292 31.5882L558.725 238.756L502.607 333.437H476.978L629.094 892.906L658.243 930.315L687.4 892.906L839.515 333.437H813.883L757.764 238.756L1288.17 31.5882L1012.04 1054.02L658.243 1487.68L304.452 1054.02Z" fill="#0E5B4B"/>
<path fill-rule="evenodd" clip-rule="evenodd" d="M658.243 1446.55L328.112 1041.88L66.8583 74.5511L520.757 251.835L487.797 307.438H442.969L605.374 904.775L658.243 972.614L711.119 904.775L873.527 307.438H828.696L795.739 251.835L1249.63 74.5511L988.383 1041.88L658.243 1446.55ZM658.243 1405.42L964.73 1029.75L1211.1 117.514L833.715 264.915L843.509 281.439H907.539L734.836 916.635L658.243 1014.9L581.655 916.635L408.949 281.439H472.988L482.778 264.915L105.397 117.514L351.761 1029.75L658.243 1405.42Z" fill="#FFCB00"/>
<path fill-rule="evenodd" clip-rule="evenodd" d="M716.076 1113.93L748.06 1075.82C770.426 1100.96 791.623 1127.73 811.257 1156.7L777.768 1185.64L792.553 1157.06C775.571 1144.83 761.123 1132.51 748.911 1120.1L714.413 1161.22L765.834 1222.51L658.243 1350.73L550.652 1222.51L602.082 1161.22L567.584 1120.1C555.038 1133.95 540.524 1145.98 525.009 1157.08L538.719 1185.64L504.168 1156.68C523.174 1127.86 544.4 1100.76 568.433 1075.82L601.409 1115.12C602.626 1112.4 604.162 1109.2 605.591 1106.91C611.727 1097.07 626.162 1076.58 627.996 1073.98C630.395 1070.58 632.851 1067.21 635.317 1063.86C637.845 1060.42 640.357 1056.98 642.981 1053.62C647.998 1047.19 653.225 1040.94 658.243 1034.51C660.895 1037.88 663.666 1041.14 666.318 1044.51C669.703 1048.82 684.408 1067.5 706.655 1099.99C709.821 1104.62 713.265 1109.08 716.076 1113.93ZM611.115 1126.69L640.085 1161.22L588.655 1222.51L658.243 1305.44L727.833 1222.51L676.392 1161.22L704.359 1127.9C701.093 1125.44 698.263 1122.42 695.215 1119.69C693.117 1117.81 678.926 1105.05 669.604 1095.66C667.605 1093.64 665.625 1091.61 663.686 1089.53C661.845 1087.53 660.103 1085.42 658.243 1083.42C654.706 1087.18 651.375 1091.14 647.838 1094.9C641.748 1101.39 627.737 1113.71 625.94 1115.29C622.918 1117.95 619.939 1120.66 616.792 1123.17C615.549 1124.16 614.165 1124.97 612.796 1125.77C612.622 1125.87 612.004 1126.21 611.115 1126.69ZM658.243 1218.56C656.849 1219.9 655.6 1221.39 654.209 1222.73C653.522 1223.4 652.76 1223.98 652.014 1224.57C651.488 1224.99 649.358 1226.69 645.136 1229.42C643.783 1230.31 642.46 1231.24 641.01 1231.95C639.844 1232.51 639.781 1232.29 635.585 1232.86L630.409 1233.62C630.631 1231.68 630.565 1229.7 630.789 1227.76C630.961 1226.25 631.234 1224.75 631.596 1223.29C631.877 1222.12 632.188 1220.97 632.715 1219.9C635.169 1214.99 642.306 1204.03 643.187 1202.68C644.351 1200.9 645.566 1199.14 646.787 1197.4C648.036 1195.62 649.277 1193.81 650.597 1192.07C653.095 1188.79 655.743 1185.62 658.243 1182.34C659.569 1184.06 660.974 1185.7 662.28 1187.42C672.374 1200.56 680.489 1213.78 681.934 1216.16C683.537 1218.79 685.18 1221.39 686.526 1224.16C686.862 1224.85 686.862 1225.64 686.882 1226.41C686.922 1227.48 686.862 1228.57 686.744 1229.66C686.605 1230.98 686.229 1232.29 686.071 1233.62L679.658 1234.13C679.104 1234.15 678.51 1234.27 678.035 1234.01C676.016 1233 668.673 1227.64 667.882 1227.05C667.248 1226.59 663.29 1223.7 660.341 1220.79C659.608 1220.08 658.975 1219.27 658.243 1218.56ZM420.692 760.364C424.71 638.435 403.857 566.154 397.216 541.536C394.471 531.363 390.281 515.796 385.588 498.345C382.036 496.91 378.516 495.39 375.021 493.825C367.146 490.298 359.328 486.644 351.522 482.965C358 529.946 349.174 576.956 325.174 617.814C324.086 619.668 321.226 623.769 320.87 624.278C319.726 625.919 315.844 631.049 312.101 634.975C302.215 645.347 302.878 645.917 293.645 656.872C289.269 642.111 283.743 627.71 279.367 612.951C278.844 611.187 279.094 611.128 274.199 590.542L254.156 506.529C261.532 520.578 292.784 579.88 296.042 585.932C297.202 588.09 298.372 590.243 299.539 592.396C305.556 580.513 315.233 557.928 317.883 528.471C319.668 508.62 318.213 487.739 312.177 464.465C303.015 460.154 297.934 457.773 282.894 450.959C275.921 447.8 265.008 443.275 263.444 442.628C256.186 439.62 248.905 436.669 241.647 433.654C234.985 430.889 228.301 428.17 221.688 425.29C217.762 423.58 213.956 421.599 210.029 419.889C216.21 417.403 222.12 414.28 228.301 411.794C234.011 409.496 239.802 407.376 245.681 405.547C247.201 405.074 247.218 405.138 264.917 400.437C262.957 403.857 260.04 406.665 258.08 410.086C257.356 411.346 257.318 412.894 256.968 414.305C256.756 415.158 256.604 416.025 256.392 416.878C260.244 418.311 264.184 419.497 268.036 420.93C273.552 422.982 279.013 425.179 284.489 427.337C290.263 429.609 296.012 431.942 301.784 434.22L302.306 434.426C301.091 431.341 299.8 428.211 298.433 425.037C264.064 345.29 196.32 278.653 185.745 268.826C182.276 265.602 178.804 262.382 175.335 259.158L211.468 197.904C216.131 200.503 220.841 203.017 225.506 205.615C225.716 205.732 230.718 209.257 231.454 209.823C246.049 221.016 254.565 229.893 262.478 238.473C283.517 261.285 293.772 283.166 298.959 295.807C292.289 286.429 277.495 266.316 250.445 248.307C250.26 248.185 243.709 243.91 234.28 239.179C232.552 238.312 230.092 237.052 224.701 234.704L217.762 251.158C250.035 283.395 319.365 361.895 344.343 449.367C349.527 451.093 354.716 452.795 359.906 454.503C364.967 456.168 370.045 457.781 375.118 459.41C364.668 420.532 354.968 384.419 354.958 384.385L350.02 362.291C348.442 354.214 346.932 346.125 345.55 338.012L338.211 288.767C338.207 288.745 331.318 229.455 331.229 228.551L355.348 284.165C359.652 294.74 363.749 305.398 367.951 316.017C369.855 320.83 371.862 325.606 373.667 330.461C379.696 346.679 379.746 346.663 384.939 363.168C386.212 367.214 387.611 371.221 388.759 375.305C388.901 375.811 418.922 487.652 433.143 540.327C444.007 580.572 460.312 656.915 455.253 772.415C454.426 791.321 452.874 810.01 451.413 824.898C455.455 812.853 461.098 800.253 469.593 786.662C478.713 779.736 489.423 775.437 502.191 774.541C502.634 786.594 500.645 798.006 496.484 808.849C481.721 822.195 466.119 832.603 449.786 840.461C448.983 847.699 448.346 852.817 448.088 854.882C439.479 924.078 426.289 979.108 419.435 1004.38L474.915 1072.27L553.918 997.665C547.412 990.665 537.039 982.821 523.038 981.534C521.921 981.432 515.827 980.871 509.045 982.2C497.963 984.369 486.881 986.544 475.799 988.713C477.513 985.622 496.083 952.117 497.185 950.055C504.453 936.475 508.338 926.886 508.336 899.024C501.444 900.93 492.88 904.313 484.902 910.462C483.039 911.897 474.935 917.999 467.805 930.617C461.106 942.472 456.231 959.474 457.46 977.586C451.19 958.88 451.202 934.488 459.823 915.028C473.086 885.095 500.318 872.875 513.832 867.952C514.016 867.887 514.1 867.782 517.231 867.02C517.993 866.836 518.026 866.828 518.096 866.814L536.928 862.799L538.201 888.459C538.592 896.544 538.493 904.465 538.476 905.857C538.216 926.589 535.321 939.563 530.389 951.464C542.222 953.275 556.297 958.286 569.967 970.235C571.598 971.66 580.752 979.66 587.43 990.896C587.77 991.468 587.761 991.47 593.855 1002.49L472.134 1118.66C444.306 1081.62 410.916 1048.98 383.088 1011.93C383.088 1011.93 389.155 992.773 396.929 955.985C398.501 948.555 399.963 941.247 401.329 934.08C387.389 929.471 372.83 922.92 357.03 912.479C350.124 902.892 345.97 891.731 345.376 878.535C357.822 878.393 369.545 880.744 380.618 885.318C389.875 896.093 397.671 907.246 404.14 918.744C407.049 902.231 409.432 886.571 411.387 871.99C351.615 837.898 333.964 802.497 327.045 782.287C318.999 758.78 319.302 735.615 323.737 713.99C324.096 712.239 326.694 701.757 329.926 693.07C334.429 680.967 339.249 671.021 342.51 664.502C336.66 668.086 330.615 672.312 325.075 677.121C298.31 700.361 299.854 721.978 300.618 730.378C298.565 723.324 288.693 692.1 331.476 652.852C331.72 652.63 341.843 643.001 356.6 633.78C358.774 632.422 360.353 631.526 360.377 631.514C367.419 628.214 374.477 624.951 381.519 621.653C379.641 629.356 377.739 637.056 375.86 644.761C375.354 646.841 375.168 649.24 372.436 657.228C369.847 664.801 366.384 673.665 363.084 683.312C362.693 684.46 359.152 693.984 355.625 707.566C354.835 710.604 354.136 713.323 352.452 722.366C347.162 750.758 351.338 779.026 375.704 807.309C387.625 821.146 402.275 832.309 415.148 840.677C418.137 812.512 419.421 790.388 420.047 776.706C407.219 768.918 394.289 759.055 381.117 744.247C377.317 734.279 376.284 723.578 378.829 711.93C389.719 714.693 399.399 719.463 407.999 726.026C413.531 737.48 417.721 748.926 420.692 760.364ZM904.499 928.06C911.822 913.251 921.203 898.981 932.94 885.318C944.024 880.744 955.741 878.393 968.19 878.535C967.596 891.731 963.44 902.892 956.532 912.479C938.521 924.384 922.114 931.23 906.398 935.909C915.127 971.134 923.677 994.783 926.686 1002.59C926.963 1003.31 926.963 1003.31 931.159 1013.74L853.454 1111.26L728.327 996.666C732.464 993.02 736.541 989.335 740.678 985.689C741.232 985.194 744.003 983.31 744.28 983.11C745.705 982.142 759.817 972.092 776.937 969.899C814.107 965.143 829.268 980.581 829.248 980.584C818.818 985.352 799.382 981.281 779.906 990.174C778.877 990.643 774.681 992.254 769.495 995.914L848.922 1060.8L891.238 1007.67C887.279 996.622 880.589 976.493 873.662 949.226C872.752 947.965 872.613 947.084 871.584 944.584C857.848 911.715 828.041 894.322 807.14 888.707C807.12 893.481 807.378 900.748 808.862 907.476C811.277 918.411 815.611 924.058 816.739 925.685C819.372 929.409 821.549 931.191 822.836 932.566C825.468 935.359 828.259 937.669 833.504 941.057C839.461 944.915 845.24 947.147 848.189 948.301C857.314 951.866 865.943 953.633 868.872 954.255C857.037 956.739 844.488 958.316 830.93 956.297C828.971 956.004 823.904 955.31 816.799 952.45C811.633 950.364 809.337 948.844 808.743 948.444C799.758 942.441 795.186 936.099 793.305 933.396C788.357 926.342 783.073 915.963 780.638 899.074C780.242 896.303 779.075 885.328 779.906 874.229C780.044 872.538 780.045 872.542 781.272 858.658C793.919 858.707 793.919 858.612 797.363 858.798C813.118 859.653 837.957 867.547 860.084 885.031C857.413 869.374 855.037 852.613 853.118 834.907C840.629 827.889 828.595 819.263 817.076 808.849C812.92 798.006 810.92 786.594 811.376 774.541C824.142 775.437 834.849 779.736 843.974 786.662C846.111 790.103 848.09 793.482 849.891 796.805C845.359 722.279 850.426 634.841 877.601 544.21C884.013 522.832 895.968 478.595 926.428 363.97C927.735 358.99 928.982 353.984 930.387 349.03L936.879 328.516L944.4 308.017C944.439 307.916 960.333 270.283 960.392 270.148C960.907 269.028 978.977 231.878 980.6 228.551C980.342 232.24 977.374 274.516 977.354 274.669L972.406 315.463C971.99 318.214 971.476 320.951 971.02 323.696C970.268 328.128 969.615 332.577 968.764 336.993C968.032 340.844 967.101 344.656 966.27 348.488C965.597 351.665 964.984 354.863 964.212 358.018C964.192 358.097 950.535 409.518 944.538 431.99L942.124 441.041C952.594 426.666 973.653 398.788 1009.89 359.768C1009.93 359.738 1022.1 346.663 1039.76 329.189C1045.52 323.496 1072.63 296.547 1104.58 269.556L1090.96 236.478C1075.76 248.553 1060.9 261.032 1045.7 273.109C1044.19 274.309 1044.15 274.275 1026.48 287.7L1096.84 196.931L1141.41 277.891C1132.74 285.359 1132.66 285.244 1124.25 292.998C1115.74 300.848 1087.99 326.843 1059.95 356.106C1057.41 358.75 1045.85 370.828 1028.85 389.672C1024.16 394.889 1019.69 399.944 1015.47 404.821C1015.51 407.301 1015.08 407.819 1014.03 411.075C1007.99 429.894 1004.01 447.079 1001.54 462.654C1006.13 455.192 1011.48 447.94 1017.67 440.916C1026.1 437.545 1035.01 435.869 1044.45 436.089C1043.9 446.09 1040.63 454.517 1035.31 461.728C1022.46 469.999 1010.72 474.945 999.501 478.337C995.068 521.475 1002.45 550.365 1007.28 565.7C1009 571.185 1012.07 580.04 1017.35 590.267C1017.71 589.447 1018.07 588.628 1018.42 587.808C1024.24 574.239 1029.9 560.584 1036.16 547.211C1042.65 533.372 1049.75 519.836 1056.64 506.197C1061.61 496.327 1066.8 486.555 1071.78 476.687C1069.39 488.01 1067.47 499.426 1065.07 510.749C1054.15 562.706 1053.99 562.68 1039.84 613.857C1035.94 627.969 1031.72 641.994 1027.82 656.106C1026.1 654.423 1006.67 635.423 1006.31 635.063C1001.9 630.589 999.58 627.522 999.066 626.821C995.582 622.198 981.53 603.387 972.168 570.451C967.933 555.496 966.171 540.269 965.855 537.611C962.866 511.909 964.291 487.109 967.774 464.681C961.045 474.039 957.443 479.574 956.849 480.372C956.77 480.499 953.821 484.117 949.645 489.571C948.952 490.46 946.042 493.667 940.679 500.172C939.254 501.898 934.444 507.359 927.972 515.648C927.319 516.459 922.846 522.935 917.7 531.4C914.078 544.404 912.435 549.797 910.317 557.031C897.452 600.636 871.188 704.931 890.01 848.669C907.566 839.301 953.959 811.072 966.547 767.6C975.711 735.986 965.201 707.233 960.728 695.211C959.976 693.173 955.187 679.763 945.053 663.261C937.631 674.093 928.922 689.662 926.448 706.269C923.539 725.731 930.288 737.573 931.495 739.768C932.881 742.331 933.059 742.232 934.207 744.282C935.473 746.529 936.146 747.491 939.135 751.497C942.025 755.366 944.38 757.405 946.3 759.295C949.744 762.715 958.492 769.486 958.492 769.494C958.195 769.878 951.94 771.051 940.461 767.56C939.61 767.305 932.03 764.375 926.963 760.554C923.222 757.725 920.708 755.142 919.857 754.287C919.857 754.283 918.254 752.403 916.433 749.796C903.271 730.788 904.498 710.416 904.815 705.311C906.339 680.377 918.155 659.466 923.341 650.821C926.151 646.128 929.555 640.945 933.593 635.423C934.504 634.192 934.543 634.223 945.369 620.418C946.458 621.725 957.957 635.466 958.986 636.779C971.456 652.432 983.687 674.265 989.922 692.312C1011.26 754.173 987.844 794.258 978.462 808.629C974.741 814.333 956.018 843.351 911.03 869.51C902.875 874.254 896.72 877.197 894.444 878.252C897.512 896.497 900.995 913.194 904.499 928.06Z" fill="#478D7F"/>
<path fill-rule="evenodd" clip-rule="evenodd" d="M336.088 464.237L302.208 434.388L302.307 434.426C301.091 431.341 299.801 428.211 298.432 425.036C264.063 345.29 196.321 278.652 185.746 268.825C182.277 265.601 178.804 262.381 175.334 259.157L211.466 197.904L211.491 197.917L216.639 221.709L198.64 255.374C198.64 255.374 232.93 289.925 261.638 328.372C316.83 402.287 336.088 464.237 336.088 464.237ZM365.507 641.061C365.507 641.061 336.088 658.055 323.887 670.51C297.232 697.718 298.134 719.214 299.716 727.109C297.012 716.208 293.5 687.69 331.477 652.852C331.703 652.644 340.531 644.249 353.699 635.636C358.612 636.378 362.781 637.933 365.507 641.061ZM473.525 1095.47L475.114 1072.09L553.918 997.661C547.413 990.662 537.038 982.822 523.037 981.532C521.921 981.432 515.827 980.872 509.044 982.202C497.962 984.372 486.882 986.542 475.801 988.712C477.514 985.622 496.082 952.118 497.185 950.056C504.453 936.475 508.338 926.886 508.337 899.024C503.991 900.227 498.979 902.016 493.869 904.716C490.639 898.421 482.244 900.663 480.77 901.114C477.115 904.559 472.705 909.473 467.849 916.418C451.797 939.372 456.98 973.512 457.362 975.872L457.369 976.022C457.331 976.062 457.223 976.172 457.054 976.342C451.194 957.802 451.392 934.059 459.824 915.028C467.082 898.646 478.525 887.569 489.613 880.091C487.867 886.827 489.56 890.824 490.639 892.529C505.828 882.357 522.878 880.983 522.878 880.983C527.655 905.298 522.878 936.471 505.164 967.332C505.164 967.332 524.677 962.352 544.881 972.002C570.713 984.332 572.725 1001.21 572.725 1001.21L473.525 1095.47ZM336.088 464.237L385.802 476.702L374.952 458.79C364.565 420.15 354.967 384.418 354.959 384.385L350.019 362.291C348.441 354.215 346.933 346.124 345.55 338.013L338.211 288.767C338.207 288.745 331.318 229.456 331.229 228.55C365.28 347.478 413.294 522.326 433.384 627.656C439.473 662.009 442.211 765.893 433.717 828.506C422.268 912.883 402.884 1010.07 402.884 1010.07L473.525 1095.47L472.314 1118.49L472.134 1118.66C444.306 1081.62 410.915 1048.98 383.089 1011.93C383.088 1011.93 389.154 992.772 396.93 955.983C398.5 948.555 399.965 941.248 401.33 934.08C387.389 929.47 372.829 922.919 357.03 912.48C350.124 902.891 345.97 891.73 345.377 878.536C345.682 878.533 345.987 878.531 346.291 878.53L400.885 920.003L401.143 913.6C402.172 915.306 403.171 917.021 404.14 918.744C407.05 902.231 409.432 886.571 411.386 871.99C351.614 837.899 333.963 802.498 327.045 782.287C318.999 758.781 319.303 735.615 323.738 713.99C324.097 712.239 326.694 701.757 329.926 693.069C334.415 681.004 339.219 671.082 342.481 664.561L365.507 641.061C365.507 641.061 323.835 722.812 338.419 768.126C355.908 822.466 405.388 851.506 428.882 861.638L414.884 841.005L414.553 840.289L415.147 840.676C418.137 812.511 419.42 790.39 420.046 776.705C407.218 768.918 394.289 759.056 381.118 744.247C377.318 734.279 376.284 723.579 378.829 711.93L378.961 711.963L406.884 752.158L424.526 779.347L420.74 760.55L420.695 760.274C424.7 638.4 403.855 566.147 397.217 541.536C394.472 531.364 390.282 515.797 385.588 498.345C382.035 496.91 378.517 495.389 375.022 493.824C367.157 490.304 359.352 486.656 351.557 482.981L336.088 464.237ZM303.304 607.032L293.063 654.931C288.787 640.848 283.551 627.063 279.367 612.951C278.844 611.187 279.094 611.129 274.2 590.541L259.328 528.21L259.971 525.367L286.97 590.699L303.304 607.032ZM336.088 464.237C336.088 464.237 338.969 524.034 332.636 551.7C326.303 579.365 303.304 607.032 303.304 607.032L299.304 592.174V591.962L299.539 592.396C305.557 580.512 315.233 557.928 317.882 528.472C319.668 508.619 318.213 487.739 312.178 464.466C303.015 460.155 297.934 457.773 282.894 450.96C275.921 447.8 265.008 443.277 263.445 442.628C256.186 439.619 248.904 436.668 241.648 433.655C234.985 430.888 228.302 428.169 221.687 425.289C217.769 423.583 213.972 421.607 210.054 419.899L247.639 423.703C277.701 436.201 307.555 449.064 336.088 464.237ZM880.347 905.928L860.088 885.026C857.418 869.37 855.028 852.611 853.118 834.909C840.628 827.888 828.598 819.263 817.079 808.848C812.929 798.033 810.939 786.647 811.369 774.624C825.728 795.408 842.748 813.741 870.057 823.486C871.147 835.465 872.307 846.104 873.237 855.345C873.767 860.546 874.347 865.644 874.967 870.633L922.056 846.467C922.056 846.467 931.936 848.189 944.215 846.34C935.236 853.867 924.276 861.813 911.036 869.511C902.886 874.249 896.747 877.189 894.447 878.249L874.977 870.704C876.527 883.137 878.357 894.899 880.347 905.928ZM1094.19 221.307C1094.19 221.307 1063.64 243.876 1056.08 264.767C1052.63 267.563 1049.17 270.346 1045.69 273.109C1044.18 274.309 1044.15 274.276 1026.48 287.7L1096.84 196.93L1096.97 197.168L1094.19 221.307ZM870.057 823.486L850.068 797.118L849.848 796.08C845.388 721.712 850.508 634.548 877.607 544.211C884.017 522.832 895.957 478.594 926.416 363.969C927.746 358.989 928.976 353.985 930.386 349.029L936.876 328.516L944.405 308.016C944.445 307.915 960.335 270.283 960.395 270.147C960.905 269.028 978.984 231.877 980.604 228.551C949.355 350.971 932.206 414.631 907.886 501.331L908.706 500.158L942.115 441.253L942.585 440.399C953.215 425.845 974.185 398.216 1009.89 359.769C1009.92 359.738 1022.11 346.663 1039.76 329.188C1045.51 323.496 1072.63 296.548 1104.58 269.555L1090.96 236.477L1090.72 236.675L1094.19 221.307L1122.67 274.089C1090.7 304.305 1040.01 355.169 994.904 402.874C993.304 409.838 980.844 465.806 980.844 515.256C980.844 569.255 1020.61 625.635 1020.61 625.635L1027.04 655.337C1022.98 651.365 1006.63 635.393 1006.31 635.064C1001.89 630.59 999.584 627.522 999.054 626.82C995.574 622.198 981.524 603.388 972.175 570.451C967.925 555.496 966.165 540.268 965.855 537.611C962.875 511.91 964.285 487.111 967.785 464.68L967.725 464.761L971.545 440.782C960.265 440.047 939.385 475.317 908.326 501.056L907.736 501.865L908.076 501.266L907.856 501.45L907.736 501.865C903.646 516.44 899.357 531.67 894.757 547.941C860.648 668.711 864.557 763.11 870.057 823.486ZM794.059 872.676C794.059 872.676 788.729 889.217 798.869 918.094C813.859 960.762 868.267 954.253 868.267 954.253L867.947 954.453C856.378 956.822 844.138 958.262 830.938 956.293C828.958 956.003 823.909 955.313 816.799 952.453C811.619 950.364 809.349 948.844 808.749 948.445C799.749 942.44 795.189 936.1 793.299 933.396C788.37 926.341 783.06 915.964 780.64 899.074C780.25 896.302 779.08 885.327 779.91 874.228C780.04 872.539 780.05 872.543 781.27 858.659L781.93 858.661L794.059 872.676ZM850.848 1082.5L853.328 1111.14L728.341 996.671L728.521 996.501L754.52 997.501L850.848 1082.5ZM1020.61 625.635L1017.31 590.168L1017.36 590.266C1017.71 589.446 1018.06 588.627 1018.41 587.809C1024.24 574.239 1029.89 560.585 1036.16 547.21C1042.64 533.372 1049.74 519.836 1056.63 506.196C1061.61 496.327 1066.79 486.556 1071.77 476.686L1071.7 477.045L1020.61 625.635ZM850.848 1082.5L848.948 1060.76L891.247 1007.67C887.287 996.621 880.597 976.492 873.657 949.226C872.747 947.966 872.617 947.084 871.577 944.584C857.908 911.834 828.258 894.446 807.359 888.767L794.059 872.676C815.439 875.676 829.638 880.229 839.408 887.674C870.057 911.042 880.347 905.928 880.347 905.928C892.267 971.812 910.116 1011.5 910.116 1011.5L850.848 1082.5ZM946.155 647.123C946.155 647.123 987.764 684.972 985.054 748.47C982.564 806.717 926.806 839.218 926.806 839.218C929.936 831.724 932.136 824.598 933.586 817.777C947.675 804.55 960.725 787.705 966.555 767.599C975.714 735.986 965.195 707.234 960.735 695.212C959.975 693.173 955.175 679.765 945.045 663.261C943.745 665.155 942.415 667.193 941.075 669.356C938.055 664.614 935.556 661.327 934.246 659.686C924.576 671.968 912.916 692.623 915.476 718.83C919.726 762.329 958.465 769.521 958.465 769.521L958.435 769.538C957.725 769.957 951.525 770.926 940.455 767.561C939.606 767.304 932.026 764.376 926.966 760.554C923.216 757.726 920.696 755.144 919.866 754.288C919.856 754.283 918.246 752.403 916.436 749.796C903.276 730.787 904.496 710.417 904.816 705.311C906.346 680.378 918.156 659.466 923.336 650.821C926.146 646.129 929.556 640.945 933.606 635.423C934.486 634.214 934.546 634.223 944.815 621.13L946.155 647.123C946.155 647.123 945.405 647.728 944.135 648.897L946.155 647.123ZM567.936 1102.42L515.636 1155.73L538.719 1185.65L504.167 1156.69C523.043 1128.07 544.108 1101.14 567.936 1076.34V1102.42ZM721.811 1129.31L716.151 1114.03L720.291 1108.92L748.051 1075.83H748.06L748.94 1102.19L798.439 1154.44L810.429 1155.5L811.249 1156.71L777.77 1185.65L792.549 1157.07C775.65 1144.89 761.23 1132.61 749.041 1120.25L748.94 1119.94V1104.19L721.811 1129.31ZM567.936 1102.42L621.083 1161.22L569.653 1222.51L658.243 1328.08V1350.73L550.652 1222.51L602.081 1161.22L567.586 1120.11L567.936 1102.42ZM596.986 1134.56L601.402 1115.12L601.409 1115.13C602.626 1112.4 604.163 1109.2 605.591 1106.91C611.727 1097.08 626.162 1076.58 627.997 1073.98C630.395 1070.58 632.851 1067.21 635.318 1063.86C637.845 1060.43 640.357 1056.98 642.982 1053.62C647.999 1047.19 653.225 1040.94 658.243 1034.51V1058.97L596.986 1134.56ZM658.243 1058.97L721.811 1129.31L697.472 1161.76L746.871 1223.36L658.243 1328.08V1305.44L727.831 1222.51L676.402 1161.22L704.352 1127.91C701.092 1125.45 698.262 1122.43 695.212 1119.69C693.122 1117.81 678.922 1105.05 669.613 1095.66C667.613 1093.65 665.623 1091.61 663.693 1089.53C661.833 1087.53 660.103 1085.42 658.243 1083.42V1058.97ZM686.082 1233.58V1233.63L679.652 1234.14C679.102 1234.15 678.512 1234.27 678.022 1234.02C676.022 1233.02 668.663 1227.64 667.873 1227.05C667.243 1226.59 663.283 1223.7 660.343 1220.8C659.613 1220.08 658.973 1219.28 658.243 1218.56C656.851 1219.91 655.601 1221.4 654.209 1222.74C653.522 1223.41 652.76 1223.99 652.013 1224.58C651.487 1225 649.358 1226.7 645.137 1229.43C643.783 1230.31 642.46 1231.25 641.009 1231.96C639.844 1232.52 639.781 1232.3 635.585 1232.87L630.409 1233.63C630.632 1231.68 630.565 1229.71 630.788 1227.76C630.962 1226.25 631.235 1224.75 631.597 1223.28C631.879 1222.13 632.188 1220.97 632.715 1219.91C635.168 1214.99 642.306 1204.03 643.187 1202.68C644.35 1200.9 645.566 1199.15 646.786 1197.4C648.036 1195.61 649.276 1193.82 650.596 1192.08C653.096 1188.8 655.743 1185.63 658.243 1182.34V1204.69L686.082 1233.58ZM448.8 849.039C446.383 845.885 443.089 843.856 438.634 844.755C438.634 844.755 475.669 802.541 480.382 799.007C487.679 804.34 492.243 805.892 498.042 804.448C497.562 805.925 497.043 807.392 496.484 808.848C481.721 822.196 466.119 832.604 449.786 840.462C449.415 843.803 449.079 846.693 448.8 849.039ZM769.5 995.921L755.87 997.751C755.87 997.751 779.22 968.752 829.248 980.582H829.258C818.819 985.352 799.379 981.282 779.91 990.172C778.89 990.642 774.67 992.252 769.49 995.911L769.5 995.921ZM999.494 478.349L999.434 478.355L1022.28 453.048C1025.54 457.637 1029.53 460.864 1034.49 462.252C1021.96 470.208 1010.48 475.017 999.494 478.337V478.349ZM909.466 947.844L900.066 937.695L942.585 901.537C947.715 907.568 952.505 910.646 956.285 912.641C938.366 924.445 922.046 931.252 906.406 935.91C907.426 940.05 908.446 944.031 909.466 947.844Z" fill="#30796A"/>
</svg>
