<svg width="24" height="24" viewBox="0 0 24 24" fill="none" xmlns="http://www.w3.org/2000/svg">
<path d="M16.25 11.9961C16.25 14.3431 14.347 16.2461 12 16.2461V16.2461C9.653 16.2461 7.75 14.3431 7.75 11.9961" stroke="white" stroke-width="1.5" stroke-linecap="round" stroke-linejoin="round"/>
<path fill-rule="evenodd" clip-rule="evenodd" d="M10.5 12.035C10.5 12.863 11.172 13.535 12 13.535V13.535C12.828 13.535 13.5 12.863 13.5 12.035V8.00195C13.5 7.17395 12.828 6.50195 12 6.50195V6.50195C11.172 6.50195 10.5 7.17395 10.5 8.00195V12.035V12.035Z" stroke="white" stroke-width="1.5" stroke-linecap="round" stroke-linejoin="round"/>
<circle cx="12" cy="12" r="9" stroke="white" stroke-width="1.5" stroke-linecap="round" stroke-linejoin="round"/>
<path d="M12 16.4297V17.6797" stroke="white" stroke-width="1.5" stroke-linecap="round" stroke-linejoin="round"/>
<path d="M7.75 11.4694V11.9994" stroke="white" stroke-width="1.5" stroke-linecap="round" stroke-linejoin="round"/>
<path d="M16.25 11.4694V11.9994" stroke="white" stroke-width="1.5" stroke-linecap="round" stroke-linejoin="round"/>
</svg>
