<svg width="17" height="20" viewBox="0 0 17 20" fill="none" xmlns="http://www.w3.org/2000/svg">
<path d="M13.4872 3.13333C12.7461 2.26625 12.3377 1.1527 12.338 0H8.98788V13.7778C8.96204 14.5234 8.6549 15.2296 8.13112 15.7477C7.60735 16.2658 6.90782 16.5555 6.17985 16.5556C4.64031 16.5556 3.36097 15.2667 3.36097 13.6667C3.36097 11.7556 5.16071 10.3222 7.01467 10.9111V7.4C3.27424 6.88889 0 9.86667 0 13.6667C0 17.3667 2.99235 20 6.16901 20C9.57334 20 12.338 17.1667 12.338 13.6667V6.67778C13.6965 7.67761 15.3275 8.21405 17 8.21111V4.77778C17 4.77778 14.9617 4.87778 13.4872 3.13333Z" fill="white"/>
</svg>
