<svg width="228" height="262" viewBox="0 0 228 262" fill="none" xmlns="http://www.w3.org/2000/svg">
<path fill-rule="evenodd" clip-rule="evenodd" d="M82.8972 184.13L43.2501 115.97L41.4001 117.038L39.8007 114.267C34.5972 117.694 30.2999 122.965 27.4031 132.754L26.0075 137.47L21.5266 135.443C9.82186 130.147 4.30182 122.335 1.64126 115.706L0 111.617L4.13289 110.089C13.086 106.781 21.6921 102.448 30.049 97.377L27.8561 93.5788L47.7287 82.1053L49.0554 84.403C49.5713 84.0144 50.0866 83.6235 50.6013 83.2307L55.8002 79.2617L56.962 83.9826L61.6256 79.7885L90.0557 92.0647L67.1778 120.165L103.833 184.13H82.8972ZM123.487 184.13L159.837 120.698L136.526 92.0647L164.955 79.7885L170.225 84.5268L171.519 79.2617L176.72 83.2307C177.234 83.6235 177.748 84.0144 178.264 84.403L179.591 82.1053L199.464 93.5788L197.271 97.377C205.629 102.448 214.234 106.781 223.188 110.089L227.32 111.617L225.679 115.706C223.018 122.335 217.498 130.147 205.793 135.443L201.313 137.47L199.918 132.754C197.02 122.965 192.723 117.694 187.52 114.267L185.92 117.038L184.07 115.97L144.423 184.13H123.487Z" fill="#0E5B4B"/>
<path fill-rule="evenodd" clip-rule="evenodd" d="M154.836 102.105L184.375 127.43L209.655 183.825L113.661 184.133L17.6641 183.825L42.943 127.43L72.9773 101.681C66.2405 97.7358 60.8853 92.8354 57.5608 87.3145C53.4162 80.4374 52.4732 74.5361 53.2583 69.591C54.0565 64.5389 56.6749 60.2311 60.688 56.6706C65.2932 52.5847 71.9773 49.4914 79.0386 47.2445C80.7666 46.6958 82.499 46.2032 84.2446 45.762C86.0692 34.5727 88.0823 22.4764 89.0779 17.2326L90.3937 13.7353C90.9858 12.6674 91.8761 11.3788 93.0559 10.031C97.126 5.39773 104.92 0 113.494 0C122.332 0 130.174 5.42799 134.253 10.0249C135.45 11.3753 136.345 12.6625 136.941 13.7244L138.27 17.2454C139.248 22.4492 141.283 34.7153 143.121 46.0072C143.498 46.0918 143.871 46.1756 144.231 46.2589C150.38 47.6826 157.958 50.3975 163.708 54.5382C168.485 57.9785 172.042 62.3986 173.533 67.6156C175.125 73.1993 174.585 79.9598 169.493 87.8381C165.726 93.6688 160.708 98.4095 154.836 102.105Z" fill="#0E5B4B"/>
<path fill-rule="evenodd" clip-rule="evenodd" d="M147.363 101.342L180.858 130.058L203.047 179.56L113.662 179.846L24.2734 179.56L46.4613 130.058L80.588 100.804C71.9697 96.8833 65.0794 91.4922 61.2286 85.1024C57.755 79.3305 56.8339 74.4104 57.4918 70.26C58.1365 66.1882 60.2944 62.7461 63.5312 59.876C67.7417 56.1418 73.8863 53.3813 80.3423 51.3279C82.8774 50.5204 85.4431 49.8397 88.0133 49.2726C89.9431 37.4035 92.2106 23.7007 93.2895 18.0319C93.5044 16.899 94.465 14.9258 96.2807 12.8574C99.7149 8.94342 106.254 4.28516 113.495 4.28516C120.982 4.28516 127.592 8.97149 131.048 12.8675C132.89 14.9451 133.85 16.9227 134.061 18.038C135.122 23.6726 137.416 37.6154 139.363 49.5959C140.776 49.8766 142.078 50.159 143.262 50.4336C148.925 51.7436 155.911 54.205 161.205 58.0155C165.161 60.8646 168.179 64.4711 169.411 68.7912C170.736 73.4174 170.117 78.984 165.898 85.5111C161.403 92.4632 154.951 97.6916 147.363 101.342ZM140.644 100.288C149.854 96.9583 157.771 91.5018 162.898 83.5721C174.538 65.5658 154.96 56.8067 142.46 53.9129C140.653 53.4954 138.565 53.0581 136.236 52.6397C134.223 40.2035 131.684 24.7103 130.548 18.699C130.07 16.1591 122.587 7.8566 113.495 7.8566C104.732 7.8566 97.2894 16.1052 96.7982 18.699C95.6491 24.7414 93.1448 39.9394 91.1448 52.2717C87.8905 52.9006 84.6362 53.7098 81.4213 54.7313C67.2592 59.2374 54.5489 67.0899 64.2899 83.2594C68.575 90.3755 77.0354 96.0285 87.3729 99.6898L49.3955 132.249L29.7804 176.006L113.662 176.275L197.542 176.006L177.929 132.249L140.644 100.288Z" fill="#478D7F"/>
<path fill-rule="evenodd" clip-rule="evenodd" d="M201.094 123.785C197.184 115.629 191.936 111.411 185.933 108.441L184.35 111.184L170.1 102.957L174.118 86.6382C175.928 88.0202 177.747 89.3768 179.575 90.7043L181.159 87.9604L193.608 95.1479L191.484 98.8275C201.191 105 211.216 110.236 221.7 114.11C219.344 119.983 214.396 126.847 204.026 131.539C203.588 130.059 203.121 128.672 202.625 127.369C212.519 119.901 214.201 113.38 214.201 113.38L211.713 112.264C207.957 119.82 204.419 122.22 201.094 123.785ZM24.7126 127.317C24.2099 128.635 23.7358 130.04 23.2922 131.539C12.922 126.847 7.97459 119.983 5.61728 114.11C16.1019 110.235 26.1265 105.001 35.8337 98.8278L33.7093 95.1481L46.1588 87.9604L47.743 90.7044C49.5715 89.3764 51.3904 88.0198 53.2005 86.6379L57.2172 102.957L42.9676 111.184L41.3842 108.441C35.3904 111.407 30.1481 115.617 26.2404 123.751C22.9365 122.185 19.422 119.765 15.6936 112.264L13.2051 113.38C13.2051 113.38 14.8806 119.87 24.7126 127.317ZM76.9243 61.4468C76.9243 61.4468 86.1496 55.7797 113.201 55.7798C128.421 55.7795 169.102 60.7178 159.959 80.4828C163.144 70.4914 147.259 58.6692 134.256 62.3973C118.046 67.0445 109.575 66.6152 93.4455 61.3989C83.6473 58.2301 76.9243 61.4468 76.9243 61.4468ZM132.595 162.66C132.595 162.66 130.276 156.745 132.596 149.013C133.594 145.687 137.153 132.126 137.237 131.853C137.687 130.377 137.704 130.382 138.283 128.952C138.374 128.723 138.458 128.492 138.558 128.268C138.564 128.254 140.13 124.989 140.135 124.98C140.23 124.797 142.01 121.676 142.173 121.389C142.147 125.424 142.153 125.424 142.147 125.517C142.125 125.807 141.882 129.137 141.881 129.151C141.858 129.396 141.815 129.639 141.781 129.882C141.573 131.411 141.589 131.414 141.248 132.919C141.22 133.047 140.715 134.947 140.188 136.917C142.589 133.972 144.647 131.869 145.06 131.446C148.329 128.104 150.825 125.964 151.36 125.499C151.415 125.449 151.841 125.087 152.309 124.697L151.746 123.027C150.488 123.838 149.246 124.675 147.988 125.486C147.847 125.576 147.846 125.574 146.21 126.593L152.542 117.666L157.215 125.911C156.151 126.829 156.134 126.808 155.116 127.776C154.176 128.671 151.978 130.799 150.02 132.854C149.766 133.12 148.699 134.239 146.915 136.234C146.469 136.731 146.049 137.212 145.652 137.675C145.305 138.782 145.039 139.822 144.84 140.798C145.028 140.555 145.225 140.314 145.434 140.077C146.176 139.78 146.961 139.632 147.792 139.653C147.742 140.533 147.456 141.274 146.987 141.908C146.095 142.482 145.264 142.875 144.468 143.161C144.037 147.104 144.743 149.705 145.192 151.06C145.282 151.332 145.376 151.587 145.472 151.826C145.863 150.977 146.258 150.131 146.691 149.304C147.319 148.102 148.022 146.94 148.7 145.766C149.192 144.915 149.705 144.076 150.196 143.225C150.025 144.257 149.921 145.301 149.752 146.334C148.937 151.26 148.906 151.256 147.666 156.094C147.319 157.45 146.93 158.796 146.583 160.152C146.376 159.946 144.401 157.991 143.976 157.573C143.445 157.051 143.215 156.728 142.969 156.375C142.773 156.093 141.324 154.014 140.61 150.814C140.139 148.705 140.042 146.633 140.156 144.714L140.155 144.717C139.98 144.923 139.952 144.914 139.243 145.642C139.193 145.693 138.109 146.747 137.898 147.019C137.693 147.284 137.464 147.588 137.224 147.925C136.706 149.79 136.593 150.114 136.361 150.928C135.512 153.909 132.595 162.66 132.595 162.66ZM81.5113 138.268C78.2623 131.177 72.2294 125.509 72.1233 125.399C72.0966 125.372 72.0711 125.343 72.0451 125.315C71.954 125.217 71.9484 125.224 70.8266 124.165L74.3683 118.305C75.5145 118.945 75.5777 118.852 76.5877 119.691C76.9783 120.015 77.8545 120.742 79.1327 122.209C80.9901 124.342 81.8152 126.335 82.1861 127.304C81.5984 126.528 80.2198 124.721 77.6853 123.168C77.6837 123.167 76.98 122.744 75.9461 122.303L75.8575 122.266L75.4775 123.238C75.5772 123.339 75.688 123.452 75.8114 123.579C78.4823 126.327 83.8994 132.568 86.2576 139.687C86.7852 139.834 87.3151 139.973 87.8431 140.116C87.123 137.438 86.5391 135.263 86.5382 135.258L86.0609 133.013C85.78 131.414 85.7694 131.414 85.6032 129.799C85.485 128.646 85.3263 127.497 85.2466 126.34C85.0766 123.867 85.137 123.865 85.0273 121.389C85.7552 122.872 86.5897 124.301 87.3171 125.784C87.8278 126.824 88.2671 127.899 88.7414 128.956C89.6468 130.974 89.6327 130.98 90.3198 133.083C90.4363 133.438 90.566 133.789 90.6679 134.148C90.6757 134.177 93.3568 144.162 94.5819 148.701C96.6826 156.484 94.5815 161.991 94.5815 161.991C94.5815 161.991 90.7917 151.069 90.2572 149.088C90.0672 148.385 89.7833 147.33 89.4546 146.11C89.2463 146.075 89.0389 146.016 88.8394 145.951C88.3417 145.788 87.8538 145.594 87.3763 145.378C87.6476 150.529 85.8021 154.662 84.0539 157.068C84.0505 157.07 84.0224 157.116 83.8675 157.302C83.6838 157.523 83.6825 157.522 81.5527 160.057C81.2231 159.064 80.8668 158.078 80.5357 157.083C80.3217 156.439 80.1063 155.795 79.9177 155.143C79.7935 154.715 79.8123 154.711 79.2566 151.959C79.1314 151.344 79.1238 151.347 77.6566 144.288C81.1959 150.568 81.1958 150.568 81.5069 151.112C81.755 151.543 82.005 151.97 82.254 152.4C82.2929 152.311 82.3315 152.219 82.3714 152.125C83.7737 148.732 83.6534 145.601 83.1865 143.253L83.1022 143.209C82.3516 142.824 81.6066 142.428 80.8553 142.044C80.198 141.707 79.541 141.374 78.8777 141.048C78.2738 140.751 77.3024 140.342 77.164 140.283C76.5143 140.01 75.8608 139.745 75.2114 139.471C74.6218 139.222 74.0309 138.975 73.4474 138.713C73.1892 138.597 72.9451 138.451 72.6871 138.335C73.5567 138.027 74.3756 137.587 75.2452 137.278C75.8254 137.073 76.4193 136.899 77.0221 136.772L77.0104 136.593C77.1278 136.635 77.2471 136.67 77.3667 136.705C77.9619 136.605 78.5687 136.58 79.169 136.513C79.1765 136.512 79.1842 136.516 79.1916 136.515C79.0623 136.749 78.9422 136.987 78.821 137.225L79.2645 137.396C79.7989 137.602 80.33 137.818 80.866 138.025C80.9284 138.049 81.1947 138.152 81.5113 138.268Z" fill="#478D7F"/>
<path fill-rule="evenodd" clip-rule="evenodd" d="M116.906 113.785C127.783 112.038 134.55 102.074 134.55 102.074L137.927 103.862C137.331 109.822 128.27 116.727 128.27 116.727L119.796 173.764C118.52 174.851 109.888 175.401 107.472 173.348L99.0508 116.727C99.0508 116.727 89.9852 109.822 89.3887 103.862L92.7659 102.074C92.7659 102.074 99.5377 112.038 110.41 113.785L113.66 144.056L116.906 113.785ZM101.45 74.2634C101.981 73.6529 104.038 72.7801 107.095 72.467V72.5433C105.652 73.6792 105.577 74.1358 105.209 75.1963L102.463 75.2283L101.45 74.2634ZM118.656 72.9472C121.182 73.0779 123.691 74.4314 127.866 74.4314L127.621 77.659L124.485 79.4147L123.691 85.6014L121.182 87.1062L122.059 87.3992L120.011 96.0521C120.011 96.0521 113.323 97.4315 110.647 96.4609C107.972 95.4899 107.595 91.7368 109.814 90.6084C112.029 89.4799 115.537 90.3992 117.042 90.8592C118.551 91.3189 119.051 89.7307 119.051 89.7307C119.051 89.7307 118.84 89.1869 118.296 88.811C117.757 88.4347 117.546 87.5567 117.546 87.5567C117.546 87.5567 116.415 87.3479 115.454 87.0132C114.494 86.679 113.112 86.7624 111.608 87.0132C110.103 87.2641 109.437 85.2997 109.437 85.2997L110.98 84.6308C110.98 84.6308 112.555 85.0067 113.603 85.0067C114.647 85.0067 116.586 84.6308 116.586 84.6308L120.722 86.1356L119.511 83.3348L119.467 84.7563L116.042 82.1642L113.603 82.9383L110.98 82.2063L113.827 80.1576L114.077 81.6629L114.577 82.0387L115.371 81.6629L115.165 79.5309C115.165 79.5309 115.958 79.0708 117.13 78.7783C118.296 78.4857 118.967 77.4406 118.967 77.4406L120.599 80.3669L122.353 81.8717L122.393 79.7818L120.599 75.4761L119.594 75.0577L118.717 73.4275L118.656 72.9472ZM112.226 71.2056C112.985 70.7372 114.143 70.3788 115.48 71.2056C115.48 71.2056 115.809 72.7306 115.963 74.1569C116.02 74.6963 116.923 73.2424 116.923 73.2424C116.923 73.2424 119.371 75.1954 118.928 76.1731C118.796 76.4704 118.476 77.0603 118.099 77.0757C117.068 77.1173 118.366 75.209 116.099 74.9801C115.279 74.8976 115.34 75.8805 113.652 75.8446C112.41 75.8182 112.2 74.7191 111.875 73.8525L112.226 71.2056ZM170.94 103.445L170.102 102.959L174.115 86.6404C175.927 88.0224 177.747 89.3786 179.576 90.707L181.159 87.9628L193.606 95.1504L191.484 98.8302C201.19 105.003 211.216 110.238 221.702 114.112C219.343 119.986 214.396 126.849 204.027 131.542C203.58 130.042 203.106 128.637 202.606 127.32C212.435 119.873 214.11 113.383 214.11 113.383C201.264 107.833 188.94 99.1126 188.94 99.1126L190.593 96.2513L181.409 90.9491L179.87 93.6127L175.072 90.0742L170.94 103.445ZM56.376 103.445L52.2446 90.0742L47.4464 93.6127L45.9113 90.9491L36.7255 96.2513L38.3772 99.1126C29.1607 105.874 18.7696 111.774 6.65619 116.411C6.26365 115.633 5.91894 114.865 5.61719 114.112C16.1017 110.238 26.1265 105.003 35.8338 98.8302L33.7093 95.1504L46.1569 87.9628L47.7446 90.707C49.5735 89.3786 51.3893 88.0224 53.2007 86.6404L57.2181 102.959L56.376 103.445Z" fill="white"/>
<path fill-rule="evenodd" clip-rule="evenodd" d="M135.153 76.5497C135.153 76.5316 135.157 76.516 135.161 76.5039L135.153 76.5497ZM135.153 76.5497C135.006 77.6787 137.974 90.2161 130.56 96.5297L129.311 92.1037C128.309 96.8045 124.986 99.4379 122.36 100.566L127.384 83.966L128.482 90.121L131.476 85.7491L132.651 88.4032L135.153 76.5497ZM92.1717 76.6098L92.1588 76.5039C92.1631 76.5277 92.1674 76.5631 92.1717 76.6098ZM92.1717 76.6098C92.8501 81.6445 93.3988 86.8262 95.6325 90.1327L98.0045 87.4725C99.3957 92.8192 101.724 97.1718 104.961 100.566C100.93 98.3418 99.0544 95.997 97.4342 93.2483L96.7602 96.5297C89.4584 90.3129 92.2279 78.0619 92.1717 76.6098ZM85.5051 142.061L81.5129 138.269C78.2638 131.178 72.228 125.509 72.1243 125.4C72.0984 125.372 72.0724 125.344 72.0465 125.316C71.9558 125.217 71.9472 125.224 70.8281 124.165L74.2327 118.534L74.4315 118.34V118.34L74.911 120.549L73.3125 123.536C73.3125 123.536 76.3541 126.6 78.9032 130.01C83.7984 136.566 85.5051 142.061 85.5051 142.061ZM91.0354 143.207L87.7043 140.078L87.8425 140.116C87.1253 137.439 86.542 135.264 86.5377 135.258L86.0624 133.014C85.7816 131.414 85.7686 131.415 85.6044 129.799C85.4835 128.646 85.3279 127.497 85.2459 126.34C85.0774 123.867 85.1378 123.865 85.0298 121.389C86.8445 127.726 89.1214 135.769 91.0354 143.207ZM91.0441 143.244L91.0354 143.207L91.0829 143.252L91.0441 143.244ZM85.5051 142.061C85.5051 142.061 85.8939 145.266 85.1983 149.818C84.8181 152.307 82.1307 156.493 82.1307 156.493L82.2431 152.377L82.256 152.4C82.2949 152.311 82.3338 152.22 82.3727 152.125C83.7725 148.732 83.6516 145.601 83.1893 143.253L83.1029 143.209C82.3511 142.824 81.6079 142.428 80.8561 142.044C80.1994 141.708 79.5427 141.374 78.8773 141.048C78.2725 140.751 77.3047 140.342 77.1621 140.284C76.514 140.01 75.8616 139.745 75.2135 139.471C74.6216 139.222 74.0297 138.975 73.4464 138.713C73.1915 138.598 72.9495 138.455 72.6989 138.34L77.659 138.466C80.3248 139.574 82.9732 140.715 85.5051 142.061ZM85.5051 142.061L91.0441 143.244C92.3143 148.173 93.4247 152.835 94.1332 156.555C94.332 157.683 94.4919 159.656 94.5783 161.975C94.4141 161.501 90.7805 151.025 90.2577 149.088C90.0676 148.385 89.7824 147.331 89.4541 146.11C89.2467 146.075 89.0393 146.017 88.8405 145.951C88.3437 145.788 87.8555 145.594 87.3759 145.378L85.5051 142.061ZM82.1307 156.493L81.569 160.039L81.5561 160.058C81.2234 159.064 80.8691 158.078 80.5364 157.084C80.3204 156.44 80.1087 155.795 79.9186 155.143C79.7933 154.716 79.8106 154.711 79.2576 151.959C79.1323 151.345 79.1236 151.347 77.659 144.288L77.6719 144.314L82.1307 156.493ZM146.218 155.841L146.585 160.152V160.153C146.378 159.946 144.403 157.992 143.98 157.574C143.444 157.051 143.215 156.729 142.969 156.375C142.774 156.093 141.322 154.014 140.61 150.815C140.139 148.704 140.044 146.634 140.156 144.715V144.717C140.121 144.757 140.095 144.788 140.065 144.819L141.867 139.98C140.869 139.916 139.015 143.044 136.259 145.327L136.207 145.398L136.229 145.352L136.207 145.37L136.25 145.312L140.199 136.904C142.597 133.966 144.649 131.868 145.06 131.446C148.33 128.105 150.823 125.964 151.359 125.499C151.415 125.45 151.843 125.088 152.31 124.697L151.748 123.026L151.709 123.05L151.722 123.036L152.746 120.514L154.69 125.405C151.921 128.021 147.734 132.324 143.962 136.412C143.962 136.412 142.342 141.261 142.342 147.254C142.342 152.043 146.218 155.841 146.218 155.841ZM152.746 120.514C152.746 120.514 149.761 122.719 149.281 124.643C148.853 124.926 148.421 125.208 147.989 125.486C147.847 125.577 147.847 125.575 146.213 126.594L152.543 117.666L152.547 117.674L152.746 120.514ZM146.218 155.841L145.479 151.814C145.868 150.97 146.261 150.127 146.693 149.304C147.319 148.102 148.024 146.941 148.702 145.766C149.19 144.914 149.704 144.076 150.197 143.225C150.059 144.048 149.968 144.877 149.847 145.703L146.218 155.841ZM132.746 162.21L132.595 162.661C132.595 162.661 130.279 156.746 132.595 149.013C133.593 145.687 137.153 132.126 137.235 131.853C137.689 130.377 137.706 130.383 138.281 128.952C138.376 128.724 138.458 128.492 138.557 128.268C138.566 128.255 140.13 124.989 140.134 124.98C140.229 124.797 142.009 121.676 142.174 121.389V121.606C139.054 133.852 137.849 139.607 135.058 149.485C133.727 154.199 133.049 158.46 132.746 162.21ZM144.416 143.713L143.785 143.202L146.369 141.068C146.576 141.363 146.818 141.593 147.103 141.745C147.065 141.801 147.026 141.855 146.987 141.909C146.097 142.483 145.263 142.875 144.468 143.162C144.446 143.348 144.429 143.532 144.416 143.713Z" fill="#30796A"/>
<path fill-rule="evenodd" clip-rule="evenodd" d="M131.491 52.0522C121.821 50.5646 109.067 49.6158 95.9368 51.3082L96.4984 48.4739C96.4984 48.4739 102.979 44.4648 113.66 44.4648C124.34 44.4648 130.786 48.7046 130.786 48.7046L131.491 52.0522ZM50.9035 120.604L48.7734 116.945L57.5053 111.905L58.6719 113.944L50.9035 120.604ZM168.648 113.944L169.814 111.905L178.546 116.945L176.416 120.604L168.648 113.944Z" fill="#FFCB00"/>
<path fill-rule="evenodd" clip-rule="evenodd" d="M130.498 18.4896C130.498 18.4896 129.407 9.4095 113.662 4.9262C112.688 4.64905 111.637 4.53075 110.543 4.53743C111.509 4.37399 112.496 4.28516 113.497 4.28516C120.984 4.28516 127.593 8.97141 131.046 12.8676C132.889 14.945 133.849 16.9228 134.06 18.0379C135.121 23.6729 137.419 37.6156 139.362 49.5962C140.775 49.8767 142.08 50.1593 143.265 50.4335C148.925 51.7436 155.914 54.2051 161.206 58.0154C165.163 60.8648 168.179 64.4711 169.414 68.7914C170.735 73.4177 170.116 78.9839 165.896 85.5111C161.405 92.4635 154.95 97.6917 147.363 101.342L180.86 130.058L197.913 168.105L193.829 167.723L177.927 132.249L140.646 100.288C149.853 96.9583 157.772 91.502 162.899 83.5723C174.537 65.5657 154.961 56.8071 142.46 53.9129C140.656 53.4953 138.564 53.0583 136.238 52.6398C134.225 40.2034 131.681 24.7106 130.55 18.6988C130.538 18.633 130.519 18.5632 130.498 18.4896Z" fill="white"/>
<path fill-rule="evenodd" clip-rule="evenodd" d="M90.3715 243.441C69.1899 244.159 45.4309 245.827 12.3139 248.445L4.625 241.324V169.807L11.768 162.664H215.555L222.697 169.807V241.324L215.009 248.445C181.723 245.813 157.898 244.141 136.625 243.429L113.707 261.909L90.3715 243.441Z" fill="#0E5B4B"/>
<path fill-rule="evenodd" clip-rule="evenodd" d="M106.528 235.242C103.844 235.262 93.5855 235.403 76.6963 236.535C75.231 236.633 69.2149 237.037 58.3924 237.943C50.7651 238.582 44.7359 239.171 44.522 239.19C44.4855 239.192 41.764 239.4 38.1772 239.693C36.3288 239.844 35.3237 239.884 28.6352 240.392C27.88 240.448 23.1083 240.766 16.5703 241.299C17.1193 241.193 24.588 239.76 30.3163 238.777C36.246 237.76 37.312 237.598 37.9218 237.506C38.4263 237.429 43.5507 236.65 44.2285 236.563C49.9209 235.832 58.5481 234.794 63.6266 234.255C81.5372 232.35 91.5649 231.769 95.7072 231.537C96.5883 231.488 101.926 231.19 106.728 231.097C107.091 231.09 107.498 230.904 107.817 231.078C107.901 231.124 111.822 233.83 112.169 234.07L113.726 235.147C114.924 234.321 116.119 233.495 117.315 232.67C118.077 232.144 118.763 231.486 119.604 231.098C119.604 231.098 123.384 231.146 129.427 231.441C142.727 232.092 156.261 233.463 162.81 234.15C171.963 235.111 178.422 235.899 185.589 236.824C190.042 237.399 193.533 237.874 194.447 237.999C194.709 238.033 194.707 238.037 197.688 238.56C199.162 238.818 199.161 238.826 200.628 239.124C204.775 239.965 204.774 239.967 208.903 240.884C210.049 241.138 210.057 241.14 210.755 241.299L198.662 240.712C198.356 240.698 198.356 240.688 194.836 240.444C193.804 240.37 193.805 240.356 192.778 240.248C189.558 239.912 183.312 239.258 170.782 238.135C170.716 238.129 155.722 236.739 140.277 235.898C129.88 235.333 123.006 235.241 120.881 235.224L117.396 237.683L126.184 243.757L113.708 253.431L101.253 243.757C104.176 241.74 107.099 239.724 110.02 237.706L106.528 235.242ZM113.694 240.297L108.535 243.94L113.708 247.91L118.861 243.94L113.694 240.297Z" fill="#478D7F"/>
<path fill-rule="evenodd" clip-rule="evenodd" d="M113.649 250.624L113.707 253.429L101.252 243.756C104.175 241.74 107.097 239.722 110.019 237.704L106.525 235.241C103.842 235.262 93.5844 235.402 76.6951 236.534C75.2296 236.633 69.2139 237.036 58.3908 237.941C50.7638 238.58 44.7347 239.17 44.5209 239.189C44.4844 239.191 41.7633 239.398 38.1761 239.691C36.3278 239.843 35.3224 239.883 28.6344 240.391C27.8934 240.446 23.2917 240.753 16.9502 241.267V241.224C16.9502 241.224 59.0895 234.672 107.18 233.163L113.551 237.654L113.707 237.665V235.161L113.723 235.144L113.726 235.146C114.922 234.32 116.118 233.495 117.314 232.669C118.064 232.152 118.74 231.505 119.562 231.116L119.615 231.113L120.233 233.163L113.707 237.708L113.706 237.763L113.667 237.736L111.993 238.901L104.892 243.848L113.649 250.624ZM113.706 237.763L122.466 243.94L113.649 250.624V247.864L113.707 247.909L118.86 243.94L113.693 240.296L113.69 240.298L113.662 240.278L113.706 237.763ZM120.233 233.163C150.119 233.163 210.754 241.298 210.754 241.298L198.66 240.711C198.354 240.696 198.355 240.687 194.834 240.442C193.802 240.37 193.804 240.354 192.776 240.247C189.557 239.911 183.31 239.258 170.781 238.134C170.714 238.129 155.72 236.737 140.275 235.897C129.878 235.332 123.004 235.24 120.879 235.222L120.861 235.235L120.858 235.228L120.233 233.163Z" fill="#30796A"/>
<path fill-rule="evenodd" clip-rule="evenodd" d="M210.756 171.516C208.955 171.697 207.159 171.91 205.358 172.091C204.729 172.154 199.663 172.663 197.489 172.721C192.101 172.865 186.71 172.936 181.322 173.025C175.925 173.112 141.19 173.679 113.863 173.699C88.4505 173.719 58.6045 173.209 53.7998 173.127C48.894 173.042 43.9879 172.966 39.0829 172.838C38.0561 172.811 35.1033 172.733 26.2605 172.169L16.5684 171.516C19.7998 171.31 23.0291 171.071 26.2605 170.864C35.0887 170.299 38.0561 170.221 39.083 170.195C43.9879 170.066 48.894 169.99 53.7999 169.906C58.6044 169.824 88.4505 169.313 113.863 169.333C141.189 169.354 175.926 169.92 181.322 170.008C186.712 170.096 192.102 170.168 197.489 170.311C199.663 170.369 204.729 170.879 205.357 170.942C207.159 171.123 208.956 171.336 210.756 171.516Z" fill="#478D7F"/>
<path fill-rule="evenodd" clip-rule="evenodd" d="M16.5705 171.516H16.5703H210.757C208.956 171.698 207.158 171.91 205.358 172.091C204.73 172.153 199.664 172.664 197.489 172.721C192.101 172.864 186.712 172.937 181.322 173.025C175.926 173.112 141.19 173.678 113.864 173.7C88.4508 173.719 58.6046 173.209 53.8 173.126C48.8942 173.042 43.9881 172.966 39.083 172.837C38.0562 172.81 35.1034 172.734 26.2606 172.169L16.5705 171.516Z" fill="#30796A"/>
<path d="M167.006 174.916L162.613 166.496H191.733L187.34 174.916H167.006Z" fill="#0E5B4B"/>
<path fill-rule="evenodd" clip-rule="evenodd" d="M42.2775 179.494C46.406 179.49 50.5348 179.487 54.6635 179.482C51.7929 193.158 48.2406 210.336 44.3452 229.81C39.0279 230.579 33.0657 231.542 27.6585 232.511C23.9863 215.102 20.3988 197.361 16.9492 179.526C20.9986 179.521 25.0479 179.515 29.0973 179.51C31.6999 193.625 33.9535 205.731 34.4805 209.417C34.6174 210.375 35.1954 214.418 36.1017 221.395C36.3249 219.362 37.5575 208.083 38.6818 201.273C39.8803 194.014 41.0788 186.754 42.2775 179.494ZM78.455 226.079C77.6635 222.537 76.8723 218.995 76.0808 215.453C75.2081 215.506 70.6299 215.784 65.1776 216.211C64.4797 219.961 63.7818 223.712 63.084 227.462C62.1708 227.559 57.3854 228.065 51.6842 228.804C55.6602 209.866 59.3137 193.002 62.2856 179.476C67.817 179.473 73.3483 179.469 78.8796 179.465C82.7653 196.015 86.5494 211.792 89.8329 225.371C88.922 225.417 84.1453 225.658 78.455 226.079ZM66.8024 207.359C70.541 207.143 73.681 206.991 74.2794 206.962C72.9722 200.935 71.6651 194.908 70.358 188.881C69.1729 195.04 67.9876 201.2 66.8024 207.359ZM193.756 214.558C193.76 216.106 193.762 217.654 193.766 219.202C193.772 221.656 193.204 225.599 189.047 227.802C184.479 230.222 177.62 229.338 175.743 229.094C174.442 228.925 167.155 228.017 162.806 226.004C162.788 222.672 162.771 219.341 162.754 216.009C165.567 217.271 169.704 218.597 174.951 219.137C176.09 219.254 181.754 219.945 181.743 216.336L181.739 215.253C181.737 215.039 181.733 213.589 180.978 212.69C180.213 211.778 178.404 210.747 178.162 210.608C177.486 210.222 174.018 208.233 169.671 205.878C166.065 203.879 161.96 200.558 161.929 194.96C161.921 193.515 161.915 192.07 161.907 190.624C161.884 186.548 163.745 183.835 166.148 182.151C170.623 179.015 177.61 179.129 178.48 179.129C179.473 179.129 186.431 179.068 190.511 180.687C190.521 184.247 190.528 187.806 190.538 191.366C185.85 189.323 180.914 189.151 179.508 189.112C179.159 189.103 176.34 189.026 175.228 189.887C174.049 190.8 174.128 192.316 174.128 192.37L174.132 193.432C174.134 193.678 174.14 195.413 174.897 196.404C175.643 197.38 177.91 198.585 178.195 198.736C182.835 201.327 186.524 203.518 187.242 203.944C189.574 205.3 193.743 208.369 193.756 214.558ZM198.685 179.51C202.709 179.516 206.731 179.521 210.753 179.526V234.547C204.759 233.332 199.725 232.438 198.764 232.268C198.737 214.682 198.712 197.096 198.685 179.51Z" fill="#FFCB00"/>
<path fill-rule="evenodd" clip-rule="evenodd" d="M148.8 226.024C148.012 222.4 147.222 218.775 146.434 215.151C145.566 215.105 141.004 214.867 135.574 214.678C134.885 218.172 134.195 221.665 133.506 225.158C132.6 225.121 127.836 224.928 122.164 224.832C125.654 209.708 129.141 194.585 132.629 179.461C138.161 179.463 143.692 179.465 149.222 179.468C152.357 192.836 156.126 209.136 160.121 226.98C159.216 226.893 154.462 226.435 148.8 226.024ZM137.181 206.333C140.909 206.44 144.038 206.558 144.635 206.58C143.328 200.598 142.019 194.617 140.71 188.635C139.534 194.534 138.357 200.434 137.181 206.333Z" fill="#FFCB00"/>
<path fill-rule="evenodd" clip-rule="evenodd" d="M116.822 224.77C109.213 224.728 101.375 224.869 93.8088 225.188L93.4883 179.46L105.556 179.457L105.829 216.581C109.905 216.524 114.513 216.511 118.72 216.544L116.822 224.77Z" fill="#FFCB00"/>
<path d="M173.041 176.431L168.277 167.301H174.073L177.328 171.588L180.504 167.301H186.3L181.536 176.431H173.041Z" fill="#FFCB00"/>
</svg>
