<svg width="1440" height="368" viewBox="0 0 1440 368" fill="none" xmlns="http://www.w3.org/2000/svg">
<path d="M74.1307 206.236H109.823L79.6218 364.793H31.803L1.14399 206.236H36.1501C44.997 256.724 50.1069 287.23 51.4796 297.755C52.8524 308.28 54.3778 320.711 56.0556 335.049C58.9537 307.746 61.4705 287.307 63.606 273.731L74.1307 206.236ZM187.695 206.236H222.472V364.793H187.695V302.102H156.121V364.793H121.344V206.236H156.121V271.443H187.695V206.236ZM277.436 364.793H243.116V206.236H277.436V277.621L303.519 206.236H340.127L311.069 282.883L342.872 364.793H304.663L277.436 289.061V364.793ZM431.16 307.593V364.793H396.84V206.236H448.549C461.056 206.236 470.818 209.21 477.835 215.159C484.851 221.108 488.359 229.802 488.359 241.242V270.528C488.359 288.832 482.106 300.272 469.598 304.848L494.537 364.793H456.785L435.507 307.593H431.16ZM431.16 235.522V280.366H444.659C448.167 280.366 450.608 279.604 451.981 278.078C453.353 276.553 454.04 273.884 454.04 270.07V244.216C454.04 240.86 453.277 238.573 451.752 237.352C450.226 236.132 447.862 235.522 444.659 235.522H431.16ZM566.476 246.733C566.476 239.106 561.9 235.293 552.748 235.293C543.749 235.293 539.249 239.106 539.249 246.733V324.296C539.249 331.922 543.749 335.736 552.748 335.736C561.9 335.736 566.476 331.922 566.476 324.296V246.733ZM504.929 244.903C504.929 232.395 508.972 222.48 517.056 215.159C525.14 207.685 537.037 203.948 552.748 203.948C568.459 203.948 580.357 207.685 588.441 215.159C596.678 222.48 600.796 232.395 600.796 244.903V326.126C600.796 338.634 596.678 348.625 588.441 356.099C580.357 363.42 568.459 367.081 552.748 367.081C537.037 367.081 525.14 363.42 517.056 356.099C508.972 348.625 504.929 338.634 504.929 326.126V244.903ZM712.28 242.615V257.487C712.28 272.282 706.865 281.358 696.035 284.714C707.78 287.459 713.653 296.611 713.653 312.169V328.414C713.653 352.667 700.687 364.793 674.757 364.793H619.159V206.236H673.384C699.315 206.236 712.28 218.362 712.28 242.615ZM667.664 235.064H653.479V269.613H667.664C674.833 269.613 678.418 266.333 678.418 259.774V244.903C678.418 238.344 674.833 235.064 667.664 235.064ZM679.79 326.126V309.881C679.79 303.322 676.206 300.043 669.037 300.043H653.479V335.964H669.037C676.206 335.964 679.79 332.685 679.79 326.126ZM731.994 206.236H812.302V235.979H766.314V269.613H806.125V299.357H766.314V335.049H812.302V364.793H731.994V206.236ZM934.582 206.236H970.275L940.074 364.793H892.255L861.596 206.236H896.602C905.449 256.724 910.559 287.23 911.931 297.755C913.304 308.28 914.83 320.711 916.507 335.049C919.406 307.746 921.922 287.307 924.058 273.731L934.582 206.236ZM976.075 243.301C976.075 231.098 980.194 221.718 988.431 215.159C996.667 208.447 1008.49 205.092 1023.89 205.092C1039.45 205.092 1051.05 206.693 1058.67 209.896V242.843C1049.37 238.878 1038.77 236.895 1026.87 236.895C1020.77 236.895 1016.65 237.886 1014.51 239.869C1012.38 241.699 1011.31 244.369 1011.31 247.877V251.309C1011.31 255.58 1012 258.783 1013.37 260.918C1014.89 262.901 1018.1 265.189 1022.98 267.782L1049.06 282.426C1061.57 289.289 1067.82 299.585 1067.82 313.313V327.499C1067.82 339.854 1063.25 349.387 1054.1 356.099C1044.94 362.658 1032.05 365.937 1015.43 365.937C998.955 365.937 986.524 364.183 978.135 360.675V327.499C988.507 331.922 1000.25 334.134 1013.37 334.134C1026.49 334.134 1033.05 330.397 1033.05 322.923V319.491C1033.05 315.983 1032.28 313.39 1030.76 311.712C1029.39 309.881 1026.72 307.898 1022.75 305.763L998.269 292.493C983.473 284.256 976.075 272.663 976.075 257.715V243.301ZM1082.34 206.236H1162.65V235.979H1116.66V269.613H1156.47V299.357H1116.66V335.049H1162.65V364.793H1082.34V206.236ZM1261.47 206.236V235.979H1232.87V364.793H1198.09V235.979H1169.49V206.236H1261.47ZM1272.93 364.793V206.236H1307.71V364.793H1272.93ZM1290.55 171.001H1315.72L1298.56 197.313H1280.48L1290.55 171.001ZM1395.61 206.236H1429.47V364.793H1396.53C1373.95 307.136 1360.91 272.358 1357.4 260.461C1360.61 272.511 1362.21 293.255 1362.21 322.694V364.793H1328.34V206.236H1362.21L1383.03 259.317C1391.87 282.044 1397.82 299.28 1400.87 311.025C1397.37 296.23 1395.61 274.57 1395.61 246.047V206.236Z" fill="#0E5B4B"/>
<path d="M74.1307 35.2357H109.823L79.6218 193.793H31.803L1.14399 35.2357H36.1501C44.997 85.7239 50.1069 116.23 51.4796 126.755C52.8524 137.28 54.3778 149.711 56.0556 164.049C58.9537 136.746 61.4705 116.307 63.606 102.731L74.1307 35.2357ZM187.695 35.2357H222.472V193.793H187.695V131.102H156.121V193.793H121.344V35.2357H156.121V100.443H187.695V35.2357ZM277.436 193.793H243.116V35.2357H277.436V106.621L303.519 35.2357H340.127L311.069 111.883L342.872 193.793H304.663L277.436 118.061V193.793ZM431.16 136.593V193.793H396.84V35.2357H448.549C461.056 35.2357 470.818 38.21 477.835 44.1588C484.851 50.1076 488.359 58.8019 488.359 70.2418V99.528C488.359 117.832 482.106 129.272 469.598 133.848L494.537 193.793H456.785L435.507 136.593H431.16ZM431.16 64.5219V109.366H444.659C448.167 109.366 450.608 108.604 451.981 107.078C453.353 105.553 454.04 102.884 454.04 99.0704V73.2162C454.04 69.8605 453.277 67.5725 451.752 66.3523C450.226 65.132 447.862 64.5219 444.659 64.5219H431.16ZM566.476 75.733C566.476 68.1064 561.9 64.2931 552.748 64.2931C543.749 64.2931 539.249 68.1064 539.249 75.733V153.296C539.249 160.922 543.749 164.736 552.748 164.736C561.9 164.736 566.476 160.922 566.476 153.296V75.733ZM504.929 73.9026C504.929 61.395 508.972 51.4804 517.056 44.1588C525.14 36.6847 537.037 32.9477 552.748 32.9477C568.459 32.9477 580.357 36.6847 588.441 44.1588C596.678 51.4804 600.796 61.395 600.796 73.9026V155.126C600.796 167.634 596.678 177.625 588.441 185.099C580.357 192.42 568.459 196.081 552.748 196.081C537.037 196.081 525.14 192.42 517.056 185.099C508.972 177.625 504.929 167.634 504.929 155.126V73.9026ZM712.28 71.6146V86.4865C712.28 101.282 706.865 110.358 696.035 113.714C707.78 116.459 713.653 125.611 713.653 141.169V157.414C713.653 181.667 700.687 193.793 674.757 193.793H619.159V35.2357H673.384C699.315 35.2357 712.28 47.362 712.28 71.6146ZM667.664 64.0643H653.479V98.6128H667.664C674.833 98.6128 678.418 95.3334 678.418 88.7745V73.9026C678.418 67.3437 674.833 64.0643 667.664 64.0643ZM679.79 155.126V138.881C679.79 132.322 676.206 129.043 669.037 129.043H653.479V164.964H669.037C676.206 164.964 679.79 161.685 679.79 155.126ZM731.994 35.2357H812.302V64.9795H766.314V98.6128H806.125V128.357H766.314V164.049H812.302V193.793H731.994V35.2357ZM934.582 35.2357H970.275L940.074 193.793H892.255L861.596 35.2357H896.602C905.449 85.7239 910.559 116.23 911.931 126.755C913.304 137.28 914.83 149.711 916.507 164.049C919.406 136.746 921.922 116.307 924.058 102.731L934.582 35.2357ZM976.075 72.301C976.075 60.0984 980.194 50.7177 988.431 44.1588C996.667 37.4474 1008.49 34.0917 1023.89 34.0917C1039.45 34.0917 1051.05 35.6933 1058.67 38.8964V71.8434C1049.37 67.8776 1038.77 65.8947 1026.87 65.8947C1020.77 65.8947 1016.65 66.8861 1014.51 68.869C1012.38 70.6994 1011.31 73.3687 1011.31 76.877V80.309C1011.31 84.5799 1012 87.783 1013.37 89.9185C1014.89 91.9014 1018.1 94.1894 1022.98 96.7824L1049.06 111.426C1061.57 118.289 1067.82 128.585 1067.82 142.313V156.499C1067.82 168.854 1063.25 178.387 1054.1 185.099C1044.94 191.658 1032.05 194.937 1015.43 194.937C998.955 194.937 986.524 193.183 978.135 189.675V156.499C988.507 160.922 1000.25 163.134 1013.37 163.134C1026.49 163.134 1033.05 159.397 1033.05 151.923V148.491C1033.05 144.983 1032.28 142.39 1030.76 140.712C1029.39 138.881 1026.72 136.898 1022.75 134.763L998.269 121.493C983.473 113.256 976.075 101.663 976.075 86.7153V72.301ZM1082.34 35.2357H1162.65V64.9795H1116.66V98.6128H1156.47V128.357H1116.66V164.049H1162.65V193.793H1082.34V35.2357ZM1261.47 35.2357V64.9795H1232.87V193.793H1198.09V64.9795H1169.49V35.2357H1261.47ZM1272.93 193.793V35.2357H1307.71V193.793H1272.93ZM1290.55 0.000708914H1315.72L1298.56 26.3125H1280.48L1290.55 0.000708914ZM1395.61 35.2357H1429.47V193.793H1396.53C1373.95 136.136 1360.91 101.358 1357.4 89.4609C1360.61 101.511 1362.21 122.255 1362.21 151.694V193.793H1328.34V35.2357H1362.21L1383.03 88.3169C1391.87 111.044 1397.82 128.28 1400.87 140.025C1397.37 125.23 1395.61 103.57 1395.61 75.0466V35.2357Z" fill="#FFCB00"/>
</svg>
