<svg width="24" height="16" viewBox="0 0 24 16" fill="none" xmlns="http://www.w3.org/2000/svg">
<path d="M23.4991 13.5006C23.3625 13.9846 23.0946 14.426 22.7223 14.7805C22.35 15.1351 21.8863 15.3905 21.3777 15.521C19.5054 16 12 16 12 16C12 16 4.49464 16 2.62232 15.5236C2.11345 15.3934 1.64953 15.1382 1.27716 14.7836C0.904787 14.429 0.637069 13.9874 0.500893 13.5032C-1.02179e-07 11.7197 0 8 0 8C0 8 -1.02179e-07 4.28025 0.500893 2.49936C0.776786 1.51592 1.59107 0.741401 2.62232 0.47898C4.49464 0 12 0 12 0C12 0 19.5054 0 21.3777 0.47898C22.4116 0.741401 23.2232 1.51592 23.4991 2.49936C24 4.28025 24 8 24 8C24 8 24 11.7197 23.4991 13.5006ZM9.61607 4.58599L9.61607 11.414L15.8304 8.02548L9.61607 4.58599Z" fill="white"/>
</svg>
